<svg version="1.1" viewBox="0.0 0.0 501.78477690288713 248.41207349081364" fill="none" stroke="none" stroke-linecap="square" stroke-miterlimit="10" xmlns:xlink="http://www.w3.org/1999/xlink" xmlns="http://www.w3.org/2000/svg"><clipPath id="p.0"><path d="m0 0l501.7848 0l0 248.41208l-501.7848 0l0 -248.41208z" clip-rule="nonzero"/></clipPath><g clip-path="url(#p.0)"><path fill="#000000" fill-opacity="0.0" d="m0 0l501.7848 0l0 248.41208l-501.7848 0z" fill-rule="evenodd"/><path fill="#000000" fill-opacity="0.0" d="m255.99176 111.66122l84.50394 0l0 35.55906l-84.50394 0z" fill-rule="evenodd"/><path stroke="#ffffff" stroke-width="3.0" stroke-linejoin="round" stroke-linecap="butt" d="m255.99176 111.66122l84.50394 0l0 35.55906l-84.50394 0z" fill-rule="evenodd"/><path fill="#ffffff" d="m271.876 131.32059l-3.234375 0l-0.328125 0.8125l0.328125 0q0.484375 0 0.6875 0.1875q0.203125 0.171875 0.203125 0.484375q0 0.28125 -0.203125 0.46875q-0.203125 0.1875 -0.6875 0.1875l-1.796875 0q-0.484375 0 -0.6875 -0.1875q-0.203125 -0.1875 -0.203125 -0.484375q0 -0.296875 0.21875 -0.484375q0.203125 -0.1875 0.703125 -0.171875l2.09375 -5.2187424l-0.875 0q-0.484375 0 -0.6875 -0.1875q-0.203125 -0.1875 -0.203125 -0.484375q0 -0.296875 0.203125 -0.484375q0.203125 -0.1875 0.6875 -0.1875l2.890625 0l2.65625 6.5624924q0.46875 0 0.609375 0.09375q0.296875 0.21875 0.296875 0.578125q0 0.28125 -0.203125 0.46875q-0.1875 0.1875 -0.671875 0.1875l-1.796875 0q-0.484375 0 -0.6875 -0.1875q-0.203125 -0.1875 -0.203125 -0.484375q0 -0.296875 0.203125 -0.46875q0.203125 -0.1875 0.6875 -0.1875l0.328125 0l-0.328125 -0.8125zm-0.546875 -1.34375l-1.078125 -2.6406174l-1.078125 2.6406174l2.15625 0zm6.638794 -2.4218674l0 0.8281174q0.84375 -0.6093674 1.328125 -0.7968674q0.484375 -0.203125 0.90625 -0.203125q0.65625 0 1.265625 0.46875q0.421875 0.32811737 0.421875 0.6718674q0 0.28125 -0.203125 0.484375q-0.203125 0.203125 -0.484375 0.203125q-0.25 0 -0.53125 -0.25q-0.265625 -0.25 -0.46875 -0.25q-0.28125 0 -0.84375 0.359375q-0.546875 0.34375 -1.390625 1.046875l0 2.015625l1.90625 0q0.484375 0 0.6875 0.1875q0.203125 0.171875 0.203125 0.484375q0 0.28125 -0.203125 0.46875q-0.203125 0.1875 -0.6875 0.1875l-4.03125 0q-0.484375 0 -0.6875 -0.1875q-0.203125 -0.1875 -0.203125 -0.484375q0 -0.296875 0.203125 -0.46875q0.203125 -0.1875 0.6875 -0.1875l0.796875 0l0 -3.25l-0.484375 0q-0.484375 0 -0.6875 -0.1875q-0.203125 -0.1875 -0.203125 -0.484375q0 -0.28124237 0.203125 -0.46874237q0.203125 -0.1875 0.6875 -0.1875l1.8125 0zm7.9981995 0l0 0.8281174q0.84375 -0.6093674 1.328125 -0.7968674q0.484375 -0.203125 0.90625 -0.203125q0.65625 0 1.265625 0.46875q0.421875 0.32811737 0.421875 0.6718674q0 0.28125 -0.203125 0.484375q-0.203125 0.203125 -0.484375 0.203125q-0.25 0 -0.53125 -0.25q-0.265625 -0.25 -0.46875 -0.25q-0.28125 0 -0.84375 0.359375q-0.546875 0.34375 -1.390625 1.046875l0 2.015625l1.90625 0q0.484375 0 0.6875 0.1875q0.203125 0.171875 0.203125 0.484375q0 0.28125 -0.203125 0.46875q-0.203125 0.1875 -0.6875 0.1875l-4.03125 0q-0.484375 0 -0.6875 -0.1875q-0.203125 -0.1875 -0.203125 -0.484375q0 -0.296875 0.203125 -0.46875q0.203125 -0.1875 0.6875 -0.1875l0.796875 0l0 -3.25l-0.484375 0q-0.484375 0 -0.6875 -0.1875q-0.203125 -0.1875 -0.203125 -0.484375q0 -0.28124237 0.203125 -0.46874237q0.203125 -0.1875 0.6875 -0.1875l1.8125 0zm9.482544 5.9062424l0 -0.3125q-0.5 0.265625 -1.109375 0.390625q-0.609375 0.140625 -1.09375 0.140625q-1.078125 0 -1.75 -0.5625q-0.671875 -0.578125 -0.671875 -1.265625q0 -0.84375 0.859375 -1.5625q0.859375 -0.71875 2.359375 -0.71875q0.609375 0 1.40625 0.140625l0 -0.328125q0 -0.296875 -0.265625 -0.484375q-0.25 -0.1875 -0.96875 -0.1875q-0.59375 0 -1.546875 0.234375q-0.34375 0.078125 -0.546875 0.078125q-0.265625 0 -0.453125 -0.1875q-0.171875 -0.1875 -0.171875 -0.484375q0 -0.171875 0.0625 -0.296875q0.0625 -0.12499237 0.171875 -0.20311737q0.125 -0.078125 0.5 -0.171875q0.484375 -0.140625 1.0 -0.21875q0.515625 -0.078125 0.9375 -0.078125q1.234375 0 1.921875 0.53125q0.6875 0.5312424 0.6875 1.4687424l0 2.75l0.234375 0q0.484375 0 0.6875 0.1875q0.203125 0.171875 0.203125 0.484375q0 0.28125 -0.203125 0.46875q-0.203125 0.1875 -0.6875 0.1875l-1.5625 0zm0 -2.390625q-0.796875 -0.15625 -1.484375 -0.15625q-0.8125 0 -1.390625 0.40625q-0.375 0.25 -0.375 0.5q0 0.203125 0.1875 0.3125q0.3125 0.21875 0.890625 0.21875q0.46875 0 1.078125 -0.1875q0.609375 -0.1875 1.09375 -0.515625l0 -0.578125zm6.0450745 2.34375l-2.3125 -4.53125q-0.3125 -0.03125 -0.484375 -0.21875q-0.171875 -0.1875 -0.171875 -0.4375q0 -0.29686737 0.203125 -0.48436737q0.203125 -0.1875 0.6875 -0.1875l1.21875 0q0.484375 0 0.6875 0.1875q0.203125 0.1875 0.203125 0.48436737q0 0.28125 -0.203125 0.46875q-0.203125 0.1875 -0.65625 0.1875l1.578125 3.0625l1.5625 -3.0625q-0.421875 0 -0.640625 -0.1875q-0.203125 -0.1875 -0.203125 -0.484375q0 -0.28124237 0.203125 -0.46874237q0.21875 -0.1875 0.6875 -0.1875l1.265625 0q0.46875 0 0.671875 0.1875q0.203125 0.1875 0.203125 0.48436737q0 0.265625 -0.171875 0.453125q-0.171875 0.1875 -0.515625 0.203125l-3.0625 6.03125q0.5 0 0.65625 0.09375q0.3125 0.203125 0.3125 0.578125q0 0.296875 -0.203125 0.46875q-0.203125 0.1875 -0.6875 0.1875l-2.90625 0q-0.484375 0 -0.6875 -0.1875q-0.203125 -0.171875 -0.203125 -0.46875q0 -0.296875 0.203125 -0.484375q0.203125 -0.1875 0.6875 -0.1875l1.328125 0l0.75 -1.5zm7.357544 -3.75l4.3125 2.390625q0.328125 0.1875 0.4375 0.328125q0.109375 0.140625 0.109375 0.359375q0 0.28125 -0.203125 0.484375q-0.203125 0.203125 -0.46875 0.203125q-0.171875 0 -0.53125 -0.1875l-6.4375 -3.578125l6.4375 -3.5781174q0.359375 -0.1875 0.515625 -0.1875q0.28125 0 0.484375 0.203125q0.203125 0.1875 0.203125 0.46875q0 0.21875 -0.109375 0.375q-0.109375 0.140625 -0.4375 0.3125l-4.3125 2.4062424zm8.295074 -1.25l-1.15625 -0.375q-0.40625 -0.12499237 -0.515625 -0.28124237q-0.15625 -0.1875 -0.15625 -0.421875q0 -0.265625 0.1875 -0.46875q0.203125 -0.203125 0.4375 -0.203125q0.15625 0 0.46875 0.109375l1.140625 0.375l0 -1.21875q0 -0.484375 0.1875 -0.6875q0.1875 -0.203125 0.484375 -0.203125q0.296875 0 0.484375 0.203125q0.1875 0.203125 0.1875 0.6875l0 1.21875l1.15625 -0.375q0.3125 -0.109375 0.453125 -0.109375q0.25 0 0.4375 0.203125q0.1875 0.1875 0.1875 0.46875q0 0.234375 -0.140625 0.40625q-0.125 0.15625 -0.53125 0.29686737l-1.15625 0.375l0.71875 0.984375q0.265625 0.359375 0.265625 0.5625q0 0.28125 -0.203125 0.484375q-0.1875 0.1875 -0.46875 0.1875q-0.203125 0 -0.34375 -0.078125q-0.125 -0.09375 -0.328125 -0.375l-0.71875 -0.984375l-0.703125 0.984375q-0.203125 0.28125 -0.34375 0.375q-0.140625 0.078125 -0.328125 0.078125q-0.28125 0 -0.484375 -0.1875q-0.1875 -0.203125 -0.1875 -0.484375q0 -0.203125 0.25 -0.5625l0.71875 -0.984375zm10.498169 1.25l-4.3125 -2.4062424q-0.328125 -0.171875 -0.4375 -0.3125q-0.109375 -0.15625 -0.109375 -0.375q0 -0.28125 0.203125 -0.46875q0.203125 -0.203125 0.46875 -0.203125q0.171875 0 0.53125 0.1875l6.4375 3.5781174l-6.4375 3.578125q-0.359375 0.1875 -0.53125 0.1875q-0.265625 0 -0.46875 -0.1875q-0.203125 -0.203125 -0.203125 -0.5q0 -0.21875 0.109375 -0.359375q0.109375 -0.140625 0.4375 -0.328125l4.3125 -2.390625z" fill-rule="nonzero"/><path fill="#000000" fill-opacity="0.0" d="m255.99176 129.44075l-164.12598 1.0393677" fill-rule="evenodd"/><path stroke="#ffffff" stroke-width="3.0" stroke-linejoin="round" stroke-linecap="butt" d="m255.99176 129.44075l-147.24149 0.93244934" fill-rule="evenodd"/><path fill="#ffffff" stroke="#ffffff" stroke-width="3.0" stroke-linecap="butt" d="m108.750275 130.3732l-7.1663284 -4.9505844l-7.1030426 5.040947l7.166321 4.950577z" fill-rule="evenodd"/><path fill="#000000" fill-opacity="0.0" d="m246.03937 209.73228l104.409454 0l0 35.55905l-104.409454 0z" fill-rule="evenodd"/><path stroke="#ffffff" stroke-width="3.0" stroke-linejoin="round" stroke-linecap="butt" d="m246.03937 209.73228l104.409454 0l0 35.55905l-104.409454 0z" fill-rule="evenodd"/><path fill="#ffffff" d="m261.48755 228.82916l0 1.375l1.34375 0q0.484375 0 0.6875 0.1875q0.203125 0.171875 0.203125 0.484375q0 0.28125 -0.203125 0.46875q-0.203125 0.1875 -0.6875 0.1875l-2.890625 0q-0.484375 0 -0.6875 -0.1875q-0.203125 -0.1875 -0.203125 -0.484375q0 -0.296875 0.203125 -0.46875q0.203125 -0.1875 0.6875 -0.1875l0.203125 0l0 -5.21875l-0.203125 0q-0.484375 0 -0.6875 -0.1875q-0.203125 -0.1875 -0.203125 -0.484375q0 -0.296875 0.203125 -0.484375q0.203125 -0.1875 0.6875 -0.1875l3.0625 0q1.359375 0 2.140625 0.75q0.796875 0.734375 0.796875 1.796875q0 0.578125 -0.265625 1.09375q-0.203125 0.390625 -0.671875 0.78125q-0.46875 0.375 -0.96875 0.578125q-0.484375 0.1875 -1.296875 0.1875l-1.25 0zm0 -1.34375l1.234375 0q0.875 0 1.375 -0.390625q0.515625 -0.390625 0.515625 -0.9375q0 -0.46875 -0.421875 -0.8125q-0.40625 -0.359375 -1.171875 -0.359375l-1.53125 0l0 2.5zm9.966919 4.046875l0 -0.3125q-0.5 0.265625 -1.109375 0.390625q-0.609375 0.140625 -1.09375 0.140625q-1.078125 0 -1.75 -0.5625q-0.671875 -0.578125 -0.671875 -1.265625q0 -0.84375 0.859375 -1.5625q0.859375 -0.71875 2.359375 -0.71875q0.609375 0 1.40625 0.140625l0 -0.328125q0 -0.296875 -0.265625 -0.484375q-0.25 -0.1875 -0.96875 -0.1875q-0.59375 0 -1.546875 0.234375q-0.34375 0.078125 -0.546875 0.078125q-0.265625 0 -0.453125 -0.1875q-0.171875 -0.1875 -0.171875 -0.484375q0 -0.171875 0.0625 -0.296875q0.0625 -0.125 0.171875 -0.203125q0.125 -0.078125 0.5 -0.171875q0.484375 -0.140625 1.0 -0.21875q0.515625 -0.078125 0.9375 -0.078125q1.234375 0 1.921875 0.53125q0.6875 0.53125 0.6875 1.46875l0 2.75l0.234375 0q0.484375 0 0.6875 0.1875q0.203125 0.171875 0.203125 0.484375q0 0.28125 -0.203125 0.46875q-0.203125 0.1875 -0.6875 0.1875l-1.5625 0zm0 -2.390625q-0.796875 -0.15625 -1.484375 -0.15625q-0.8125 0 -1.390625 0.40625q-0.375 0.25 -0.375 0.5q0 0.203125 0.1875 0.3125q0.3125 0.21875 0.890625 0.21875q0.46875 0 1.078125 -0.1875q0.609375 -0.1875 1.09375 -0.515625l0 -0.578125zm7.2794495 -6.046875l0 1.40625l-1.59375 0l0 -1.40625l1.59375 0zm0.171875 2.53125l0 4.578125l1.609375 0q0.46875 0 0.671875 0.1875q0.21875 0.171875 0.21875 0.484375q0 0.28125 -0.21875 0.46875q-0.203125 0.1875 -0.671875 0.1875l-4.546875 0q-0.46875 0 -0.6875 -0.1875q-0.203125 -0.1875 -0.203125 -0.484375q0 -0.296875 0.203125 -0.46875q0.21875 -0.1875 0.6875 -0.1875l1.609375 0l0 -3.25l-1.078125 0q-0.46875 0 -0.6875 -0.1875q-0.203125 -0.1875 -0.203125 -0.484375q0 -0.28125 0.203125 -0.46875q0.203125 -0.1875 0.6875 -0.1875l2.40625 0zm7.060669 0l0 0.828125q0.84375 -0.609375 1.328125 -0.796875q0.484375 -0.203125 0.90625 -0.203125q0.65625 0 1.265625 0.46875q0.421875 0.328125 0.421875 0.671875q0 0.28125 -0.203125 0.484375q-0.203125 0.203125 -0.484375 0.203125q-0.25 0 -0.53125 -0.25q-0.265625 -0.25 -0.46875 -0.25q-0.28125 0 -0.84375 0.359375q-0.546875 0.34375 -1.390625 1.046875l0 2.015625l1.90625 0q0.484375 0 0.6875 0.1875q0.203125 0.171875 0.203125 0.484375q0 0.28125 -0.203125 0.46875q-0.203125 0.1875 -0.6875 0.1875l-4.03125 0q-0.484375 0 -0.6875 -0.1875q-0.203125 -0.1875 -0.203125 -0.484375q0 -0.296875 0.203125 -0.46875q0.203125 -0.1875 0.6875 -0.1875l0.796875 0l0 -3.25l-0.484375 0q-0.484375 0 -0.6875 -0.1875q-0.203125 -0.1875 -0.203125 -0.484375q0 -0.28125 0.203125 -0.46875q0.203125 -0.1875 0.6875 -0.1875l1.8125 0zm6.8888245 2.109375l4.3125 2.390625q0.328125 0.1875 0.4375 0.328125q0.109375 0.140625 0.109375 0.359375q0 0.28125 -0.203125 0.484375q-0.203125 0.203125 -0.46875 0.203125q-0.171875 0 -0.53125 -0.1875l-6.4375 -3.578125l6.4375 -3.578125q0.359375 -0.1875 0.515625 -0.1875q0.28125 0 0.484375 0.203125q0.203125 0.1875 0.203125 0.46875q0 0.21875 -0.109375 0.375q-0.109375 0.140625 -0.4375 0.3125l-4.3125 2.40625zm8.295044 -1.25l-1.15625 -0.375q-0.40625 -0.125 -0.515625 -0.28125q-0.15625 -0.1875 -0.15625 -0.421875q0 -0.265625 0.1875 -0.46875q0.203125 -0.203125 0.4375 -0.203125q0.15625 0 0.46875 0.109375l1.140625 0.375l0 -1.21875q0 -0.484375 0.1875 -0.6875q0.1875 -0.203125 0.484375 -0.203125q0.296875 0 0.484375 0.203125q0.1875 0.203125 0.1875 0.6875l0 1.21875l1.15625 -0.375q0.3125 -0.109375 0.453125 -0.109375q0.25 0 0.4375 0.203125q0.1875 0.1875 0.1875 0.46875q0 0.234375 -0.140625 0.40625q-0.125 0.15625 -0.53125 0.296875l-1.15625 0.375l0.71875 0.984375q0.265625 0.359375 0.265625 0.5625q0 0.28125 -0.203125 0.484375q-0.1875 0.1875 -0.46875 0.1875q-0.203125 0 -0.34375 -0.078125q-0.125 -0.09375 -0.328125 -0.375l-0.71875 -0.984375l-0.703125 0.984375q-0.203125 0.28125 -0.34375 0.375q-0.140625 0.078125 -0.328125 0.078125q-0.28125 0 -0.484375 -0.1875q-0.1875 -0.203125 -0.1875 -0.484375q0 -0.203125 0.25 -0.5625l0.71875 -0.984375zm8.779449 3.25l1.78125 0l-1.921875 3.625q-0.171875 0.3125 -0.421875 0.3125q-0.171875 0 -0.296875 -0.109375q-0.109375 -0.109375 -0.109375 -0.25q0 -0.09375 0.046875 -0.265625l0.921875 -3.3125zm15.215118 -3.25l-1.15625 -0.375q-0.40625 -0.125 -0.515625 -0.28125q-0.15625 -0.1875 -0.15625 -0.421875q0 -0.265625 0.1875 -0.46875q0.203125 -0.203125 0.4375 -0.203125q0.15625 0 0.46875 0.109375l1.140625 0.375l0 -1.21875q0 -0.484375 0.1875 -0.6875q0.1875 -0.203125 0.484375 -0.203125q0.296875 0 0.484375 0.203125q0.1875 0.203125 0.1875 0.6875l0 1.21875l1.15625 -0.375q0.3125 -0.109375 0.453125 -0.109375q0.25 0 0.4375 0.203125q0.1875 0.1875 0.1875 0.46875q0 0.234375 -0.140625 0.40625q-0.125 0.15625 -0.53125 0.296875l-1.15625 0.375l0.71875 0.984375q0.265625 0.359375 0.265625 0.5625q0 0.28125 -0.203125 0.484375q-0.1875 0.1875 -0.46875 0.1875q-0.203125 0 -0.34375 -0.078125q-0.125 -0.09375 -0.328125 -0.375l-0.71875 -0.984375l-0.703125 0.984375q-0.203125 0.28125 -0.34375 0.375q-0.140625 0.078125 -0.328125 0.078125q-0.28125 0 -0.484375 -0.1875q-0.1875 -0.203125 -0.1875 -0.484375q0 -0.203125 0.25 -0.5625l0.71875 -0.984375zm10.498199 1.25l-4.3125 -2.40625q-0.328125 -0.171875 -0.4375 -0.3125q-0.109375 -0.15625 -0.109375 -0.375q0 -0.28125 0.203125 -0.46875q0.203125 -0.203125 0.46875 -0.203125q0.171875 0 0.53125 0.1875l6.4375 3.578125l-6.4375 3.578125q-0.359375 0.1875 -0.53125 0.1875q-0.265625 0 -0.46875 -0.1875q-0.203125 -0.203125 -0.203125 -0.5q0 -0.21875 0.109375 -0.359375q0.109375 -0.140625 0.4375 -0.328125l4.3125 -2.390625z" fill-rule="nonzero"/><path fill="#000000" fill-opacity="0.0" d="m383.66238 111.66235l84.50394 0l0 35.55905l-84.50394 0z" fill-rule="evenodd"/><path stroke="#ffffff" stroke-width="3.0" stroke-linejoin="round" stroke-linecap="butt" d="m383.66238 111.66235l84.50394 0l0 35.55905l-84.50394 0z" fill-rule="evenodd"/><path fill="#ffffff" d="m399.5466 131.32173l-3.234375 0l-0.328125 0.8125l0.328125 0q0.484375 0 0.6875 0.1875q0.203125 0.171875 0.203125 0.484375q0 0.28125 -0.203125 0.46875q-0.203125 0.1875 -0.6875 0.1875l-1.796875 0q-0.484375 0 -0.6875 -0.1875q-0.203125 -0.1875 -0.203125 -0.484375q0 -0.296875 0.21875 -0.484375q0.203125 -0.1875 0.703125 -0.171875l2.09375 -5.21875l-0.875 0q-0.484375 0 -0.6875 -0.1875q-0.203125 -0.1875 -0.203125 -0.484375q0 -0.296875 0.203125 -0.484375q0.203125 -0.1875 0.6875 -0.1875l2.890625 0l2.65625 6.5625q0.46875 0 0.609375 0.09375q0.296875 0.21875 0.296875 0.578125q0 0.28125 -0.203125 0.46875q-0.1875 0.1875 -0.671875 0.1875l-1.796875 0q-0.484375 0 -0.6875 -0.1875q-0.203125 -0.1875 -0.203125 -0.484375q0 -0.296875 0.203125 -0.46875q0.203125 -0.1875 0.6875 -0.1875l0.328125 0l-0.328125 -0.8125zm-0.546875 -1.34375l-1.078125 -2.640625l-1.078125 2.640625l2.15625 0zm6.6388245 -2.421875l0 0.828125q0.84375 -0.609375 1.328125 -0.796875q0.484375 -0.203125 0.90625 -0.203125q0.65625 0 1.265625 0.46875q0.421875 0.328125 0.421875 0.671875q0 0.28125 -0.203125 0.484375q-0.203125 0.203125 -0.484375 0.203125q-0.25 0 -0.53125 -0.25q-0.265625 -0.25 -0.46875 -0.25q-0.28125 0 -0.84375 0.359375q-0.546875 0.34375 -1.390625 1.046875l0 2.015625l1.90625 0q0.484375 0 0.6875 0.1875q0.203125 0.171875 0.203125 0.484375q0 0.28125 -0.203125 0.46875q-0.203125 0.1875 -0.6875 0.1875l-4.03125 0q-0.484375 0 -0.6875 -0.1875q-0.203125 -0.1875 -0.203125 -0.484375q0 -0.296875 0.203125 -0.46875q0.203125 -0.1875 0.6875 -0.1875l0.796875 0l0 -3.25l-0.484375 0q-0.484375 0 -0.6875 -0.1875q-0.203125 -0.1875 -0.203125 -0.484375q0 -0.28125 0.203125 -0.46875q0.203125 -0.1875 0.6875 -0.1875l1.8125 0zm7.998169 0l0 0.828125q0.84375 -0.609375 1.328125 -0.796875q0.484375 -0.203125 0.90625 -0.203125q0.65625 0 1.265625 0.46875q0.421875 0.328125 0.421875 0.671875q0 0.28125 -0.203125 0.484375q-0.203125 0.203125 -0.484375 0.203125q-0.25 0 -0.53125 -0.25q-0.265625 -0.25 -0.46875 -0.25q-0.28125 0 -0.84375 0.359375q-0.546875 0.34375 -1.390625 1.046875l0 2.015625l1.90625 0q0.484375 0 0.6875 0.1875q0.203125 0.171875 0.203125 0.484375q0 0.28125 -0.203125 0.46875q-0.203125 0.1875 -0.6875 0.1875l-4.03125 0q-0.484375 0 -0.6875 -0.1875q-0.203125 -0.1875 -0.203125 -0.484375q0 -0.296875 0.203125 -0.46875q0.203125 -0.1875 0.6875 -0.1875l0.796875 0l0 -3.25l-0.484375 0q-0.484375 0 -0.6875 -0.1875q-0.203125 -0.1875 -0.203125 -0.484375q0 -0.28125 0.203125 -0.46875q0.203125 -0.1875 0.6875 -0.1875l1.8125 0zm9.482574 5.90625l0 -0.3125q-0.5 0.265625 -1.109375 0.390625q-0.609375 0.140625 -1.09375 0.140625q-1.078125 0 -1.75 -0.5625q-0.671875 -0.578125 -0.671875 -1.265625q0 -0.84375 0.859375 -1.5625q0.859375 -0.71875 2.359375 -0.71875q0.609375 0 1.40625 0.140625l0 -0.328125q0 -0.296875 -0.265625 -0.484375q-0.25 -0.1875 -0.96875 -0.1875q-0.59375 0 -1.546875 0.234375q-0.34375 0.078125 -0.546875 0.078125q-0.265625 0 -0.453125 -0.1875q-0.171875 -0.1875 -0.171875 -0.484375q0 -0.171875 0.0625 -0.296875q0.0625 -0.125 0.171875 -0.203125q0.125 -0.078125 0.5 -0.171875q0.484375 -0.140625 1.0 -0.21875q0.515625 -0.078125 0.9375 -0.078125q1.234375 0 1.921875 0.53125q0.6875 0.53125 0.6875 1.46875l0 2.75l0.234375 0q0.484375 0 0.6875 0.1875q0.203125 0.171875 0.203125 0.484375q0 0.28125 -0.203125 0.46875q-0.203125 0.1875 -0.6875 0.1875l-1.5625 0zm0 -2.390625q-0.796875 -0.15625 -1.484375 -0.15625q-0.8125 0 -1.390625 0.40625q-0.375 0.25 -0.375 0.5q0 0.203125 0.1875 0.3125q0.3125 0.21875 0.890625 0.21875q0.46875 0 1.078125 -0.1875q0.609375 -0.1875 1.09375 -0.515625l0 -0.578125zm6.045044 2.34375l-2.3125 -4.53125q-0.3125 -0.03125 -0.484375 -0.21875q-0.171875 -0.1875 -0.171875 -0.4375q0 -0.296875 0.203125 -0.484375q0.203125 -0.1875 0.6875 -0.1875l1.21875 0q0.484375 0 0.6875 0.1875q0.203125 0.1875 0.203125 0.484375q0 0.28125 -0.203125 0.46875q-0.203125 0.1875 -0.65625 0.1875l1.578125 3.0625l1.5625 -3.0625q-0.421875 0 -0.640625 -0.1875q-0.203125 -0.1875 -0.203125 -0.484375q0 -0.28125 0.203125 -0.46875q0.21875 -0.1875 0.6875 -0.1875l1.265625 0q0.46875 0 0.671875 0.1875q0.203125 0.1875 0.203125 0.484375q0 0.265625 -0.171875 0.453125q-0.171875 0.1875 -0.515625 0.203125l-3.0625 6.03125q0.5 0 0.65625 0.09375q0.3125 0.203125 0.3125 0.578125q0 0.296875 -0.203125 0.46875q-0.203125 0.1875 -0.6875 0.1875l-2.90625 0q-0.484375 0 -0.6875 -0.1875q-0.203125 -0.171875 -0.203125 -0.46875q0 -0.296875 0.203125 -0.484375q0.203125 -0.1875 0.6875 -0.1875l1.328125 0l0.75 -1.5zm7.3575745 -3.75l4.3125 2.390625q0.328125 0.1875 0.4375 0.328125q0.109375 0.140625 0.109375 0.359375q0 0.28125 -0.203125 0.484375q-0.203125 0.203125 -0.46875 0.203125q-0.171875 0 -0.53125 -0.1875l-6.4375 -3.578125l6.4375 -3.578125q0.359375 -0.1875 0.515625 -0.1875q0.28125 0 0.484375 0.203125q0.203125 0.1875 0.203125 0.46875q0 0.21875 -0.109375 0.375q-0.109375 0.140625 -0.4375 0.3125l-4.3125 2.40625zm8.295044 -1.25l-1.15625 -0.375q-0.40625 -0.125 -0.515625 -0.28125q-0.15625 -0.1875 -0.15625 -0.421875q0 -0.265625 0.1875 -0.46875q0.203125 -0.203125 0.4375 -0.203125q0.15625 0 0.46875 0.109375l1.140625 0.375l0 -1.21875q0 -0.484375 0.1875 -0.6875q0.1875 -0.203125 0.484375 -0.203125q0.296875 0 0.484375 0.203125q0.1875 0.203125 0.1875 0.6875l0 1.21875l1.15625 -0.375q0.3125 -0.109375 0.453125 -0.109375q0.25 0 0.4375 0.203125q0.1875 0.1875 0.1875 0.46875q0 0.234375 -0.140625 0.40625q-0.125 0.15625 -0.53125 0.296875l-1.15625 0.375l0.71875 0.984375q0.265625 0.359375 0.265625 0.5625q0 0.28125 -0.203125 0.484375q-0.1875 0.1875 -0.46875 0.1875q-0.203125 0 -0.34375 -0.078125q-0.125 -0.09375 -0.328125 -0.375l-0.71875 -0.984375l-0.703125 0.984375q-0.203125 0.28125 -0.34375 0.375q-0.140625 0.078125 -0.328125 0.078125q-0.28125 0 -0.484375 -0.1875q-0.1875 -0.203125 -0.1875 -0.484375q0 -0.203125 0.25 -0.5625l0.71875 -0.984375zm10.498199 1.25l-4.3125 -2.40625q-0.328125 -0.171875 -0.4375 -0.3125q-0.109375 -0.15625 -0.109375 -0.375q0 -0.28125 0.203125 -0.46875q0.203125 -0.203125 0.46875 -0.203125q0.171875 0 0.53125 0.1875l6.4375 3.578125l-6.4375 3.578125q-0.359375 0.1875 -0.53125 0.1875q-0.265625 0 -0.46875 -0.1875q-0.203125 -0.203125 -0.203125 -0.5q0 -0.21875 0.109375 -0.359375q0.109375 -0.140625 0.4375 -0.328125l4.3125 -2.390625z" fill-rule="nonzero"/><path fill="#000000" fill-opacity="0.0" d="m383.66238 129.44188l-43.18112 0" fill-rule="evenodd"/><path stroke="#ffffff" stroke-width="3.0" stroke-linejoin="round" stroke-linecap="butt" d="m383.66238 129.44188l-43.18112 0" fill-rule="evenodd"/><path fill="#000000" fill-opacity="0.0" d="m468.16632 129.44188l25.000275 0l0 -98.04724l-90.669586 0" fill-rule="evenodd"/><path stroke="#ffffff" stroke-width="3.0" stroke-linejoin="round" stroke-linecap="butt" d="m468.16632 129.44188l25.000275 0l0 -98.04724l-90.669586 0" fill-rule="evenodd"/><path fill="#000000" fill-opacity="0.0" d="m442.06265 209.73228l57.007874 0l0 35.55905l-57.007874 0z" fill-rule="evenodd"/><path stroke="#ffffff" stroke-width="3.0" stroke-linejoin="round" stroke-linecap="butt" d="m442.06265 209.73228l57.007874 0l0 35.55905l-57.007874 0z" fill-rule="evenodd"/><path fill="#ffffff" d="m463.2412 224.98541l0 5.21875l1.34375 0q0.484375 0 0.6875 0.1875q0.203125 0.171875 0.203125 0.484375q0 0.28125 -0.203125 0.46875q-0.203125 0.1875 -0.6875 0.1875l-4.03125 0q-0.484375 0 -0.6875 -0.1875q-0.203125 -0.1875 -0.203125 -0.484375q0 -0.296875 0.203125 -0.46875q0.203125 -0.1875 0.6875 -0.1875l1.34375 0l0 -5.21875l-1.34375 0q-0.484375 0 -0.6875 -0.1875q-0.203125 -0.1875 -0.203125 -0.484375q0 -0.296875 0.203125 -0.484375q0.203125 -0.1875 0.6875 -0.1875l4.03125 0q0.484375 0 0.6875 0.1875q0.203125 0.1875 0.203125 0.484375q0 0.296875 -0.203125 0.484375q-0.203125 0.1875 -0.6875 0.1875l-1.34375 0zm5.982544 0.640625l0 0.453125q0.359375 -0.3125 0.796875 -0.46875q0.4375 -0.15625 0.953125 -0.15625q1.1875 0 1.875 0.734375q0.546875 0.578125 0.546875 1.53125l0 2.484375q0.421875 0 0.625 0.1875q0.203125 0.171875 0.203125 0.484375q0 0.28125 -0.203125 0.46875q-0.203125 0.1875 -0.6875 0.1875l-1.203125 0q-0.484375 0 -0.6875 -0.1875q-0.203125 -0.1875 -0.203125 -0.484375q0 -0.296875 0.1875 -0.46875q0.203125 -0.1875 0.640625 -0.1875l0 -2.53125q0 -0.421875 -0.234375 -0.625q-0.3125 -0.265625 -0.921875 -0.265625q-0.46875 0 -0.8125 0.1875q-0.34375 0.171875 -0.875 0.75l0 2.484375q0.5 0 0.65625 0.09375q0.3125 0.1875 0.3125 0.578125q0 0.28125 -0.203125 0.46875q-0.203125 0.1875 -0.6875 0.1875l-1.515625 0q-0.484375 0 -0.6875 -0.1875q-0.203125 -0.1875 -0.203125 -0.484375q0 -0.359375 0.3125 -0.5625q0.15625 -0.09375 0.671875 -0.09375l0 -3.25q-0.421875 0 -0.625 -0.1875q-0.203125 -0.1875 -0.203125 -0.484375q0 -0.28125 0.203125 -0.46875q0.203125 -0.1875 0.6875 -0.1875l1.28125 0zm9.013824 1.328125l0 2.671875q0 0.4375 0.171875 0.578125q0.28125 0.203125 0.984375 0.203125q1.015625 0 1.875 -0.4375q0.34375 -0.15625 0.53125 -0.15625q0.25 0 0.4375 0.203125q0.203125 0.1875 0.203125 0.46875q0 0.25 -0.203125 0.4375q-0.328125 0.3125 -1.265625 0.578125q-0.9375 0.25 -1.578125 0.25q-1.25 0 -1.875 -0.53125q-0.609375 -0.546875 -0.609375 -1.328125l0 -2.9375l-0.484375 0q-0.484375 0 -0.6875 -0.1875q-0.203125 -0.1875 -0.203125 -0.484375q0 -0.28125 0.203125 -0.46875q0.203125 -0.1875 0.6875 -0.1875l0.484375 0l0 -1.203125q0 -0.484375 0.171875 -0.6875q0.1875 -0.203125 0.484375 -0.203125q0.296875 0 0.484375 0.203125q0.1875 0.203125 0.1875 0.6875l0 1.203125l2.46875 0q0.484375 0 0.6875 0.1875q0.203125 0.1875 0.203125 0.484375q0 0.28125 -0.203125 0.46875q-0.203125 0.1875 -0.6875 0.1875l-2.46875 0z" fill-rule="nonzero"/><path fill="#000000" fill-opacity="0.0" d="m350.44882 227.51181l91.62204 0" fill-rule="evenodd"/><path stroke="#ffffff" stroke-width="3.0" stroke-linejoin="round" stroke-linecap="butt" d="m350.44882 227.51181l91.62204 0" fill-rule="evenodd"/><path fill="#000000" fill-opacity="0.0" d="m298.24408 209.73228l0 -25.0l172.31497 0l0 25.062988" fill-rule="evenodd"/><path stroke="#ffffff" stroke-width="3.0" stroke-linejoin="round" stroke-linecap="butt" d="m298.24408 209.73228l0 -25.0l172.31497 0l0 25.062988" fill-rule="evenodd"/><path fill="#000000" fill-opacity="0.0" d="m246.03444 227.49736l-50.5412 0l0 -76.97638l-111.60054 0" fill-rule="evenodd"/><path stroke="#ffffff" stroke-width="3.0" stroke-linejoin="round" stroke-linecap="butt" d="m246.03442 227.49736l-50.541183 0l0 -76.97638l-94.71571 0" fill-rule="evenodd"/><path fill="#ffffff" stroke="#ffffff" stroke-width="3.0" stroke-linecap="butt" d="m100.77753 150.52098l-7.1348267 -4.9958496l-7.1348267 4.9958496l7.1348267 4.995865z" fill-rule="evenodd"/><path fill="#000000" fill-opacity="0.0" d="m102.19681 135.67326l87.086624 0l0 15.118118l-87.086624 0z" fill-rule="evenodd"/><path fill="#ffffff" d="m106.97806 140.49265l0 3.203125q0.296875 0 0.4375 0.140625q0.140625 0.125 0.140625 0.328125q0 0.203125 -0.140625 0.34375q-0.140625 0.125 -0.484375 0.125l-0.890625 0l0 -0.21875q-0.390625 0.1875 -0.765625 0.28125q-0.359375 0.09375 -0.6875 0.09375q-0.453125 0 -0.796875 -0.1875q-0.34375 -0.203125 -0.53125 -0.546875q-0.140625 -0.25 -0.140625 -0.609375l0 -2.015625l-0.15625 0q-0.34375 0 -0.484375 -0.125q-0.140625 -0.140625 -0.140625 -0.34375q0 -0.203125 0.140625 -0.328125q0.140625 -0.140625 0.484375 -0.140625l1.09375 0l0 2.78125q0 0.296875 0.140625 0.4375q0.140625 0.140625 0.4375 0.140625q0.28125 0 0.609375 -0.109375q0.328125 -0.109375 0.796875 -0.40625l0 -1.90625l-0.328125 0q-0.34375 0 -0.484375 -0.125q-0.140625 -0.140625 -0.140625 -0.34375q0 -0.203125 0.140625 -0.328125q0.140625 -0.140625 0.484375 -0.140625l1.265625 0zm2.6759186 0l0 0.3125q0.25 -0.21875 0.546875 -0.328125q0.3125 -0.109375 0.671875 -0.109375q0.828125 0 1.3125 0.515625q0.390625 0.421875 0.390625 1.078125l0 1.734375q0.296875 0 0.4375 0.140625q0.140625 0.125 0.140625 0.328125q0 0.203125 -0.15625 0.34375q-0.140625 0.125 -0.46875 0.125l-0.84375 0q-0.34375 0 -0.484375 -0.125q-0.140625 -0.140625 -0.140625 -0.34375q0 -0.203125 0.140625 -0.328125q0.140625 -0.140625 0.4375 -0.140625l0 -1.765625q0 -0.296875 -0.15625 -0.4375q-0.21875 -0.1875 -0.65625 -0.1875q-0.3125 0 -0.5625 0.125q-0.234375 0.125 -0.609375 0.53125l0 1.734375q0.359375 0 0.453125 0.078125q0.234375 0.125 0.234375 0.390625q0 0.203125 -0.15625 0.34375q-0.140625 0.125 -0.46875 0.125l-1.0625 0q-0.34375 0 -0.484375 -0.125q-0.140625 -0.140625 -0.140625 -0.34375q0 -0.25 0.21875 -0.390625q0.109375 -0.078125 0.46875 -0.078125l0 -2.265625q-0.296875 0 -0.4375 -0.125q-0.140625 -0.140625 -0.140625 -0.34375q0 -0.203125 0.140625 -0.328125q0.140625 -0.140625 0.484375 -0.140625l0.890625 0zm5.7696686 2.59375l0 1.546875l-1.09375 0q-0.34375 0 -0.484375 -0.125q-0.140625 -0.140625 -0.140625 -0.34375q0 -0.203125 0.140625 -0.328125q0.15625 -0.140625 0.484375 -0.140625l0.15625 0l0 -4.03125l-0.15625 0q-0.34375 0 -0.484375 -0.125q-0.140625 -0.140625 -0.140625 -0.34375q0 -0.203125 0.140625 -0.328125q0.140625 -0.140625 0.484375 -0.140625l1.09375 0l0 3.140625l0.734375 -0.578125q-0.125 -0.203125 -0.125 -0.328125q0 -0.203125 0.140625 -0.328125q0.140625 -0.140625 0.484375 -0.140625l1.0625 0q0.34375 0 0.484375 0.140625q0.140625 0.125 0.140625 0.328125q0 0.203125 -0.140625 0.34375q-0.140625 0.125 -0.484375 0.125l-0.25 0l-1.140625 0.921875l1.53125 1.34375l0.265625 0q0.34375 0 0.484375 0.140625q0.140625 0.125 0.140625 0.328125q0 0.203125 -0.140625 0.34375q-0.140625 0.125 -0.484375 0.125l-1.078125 0q-0.328125 0 -0.484375 -0.125q-0.140625 -0.140625 -0.140625 -0.34375q0 -0.171875 0.15625 -0.34375l-0.984375 -0.875l-0.171875 0.140625zm5.4259186 -2.59375l0 0.3125q0.25 -0.21875 0.546875 -0.328125q0.3125 -0.109375 0.671875 -0.109375q0.828125 0 1.3125 0.515625q0.390625 0.421875 0.390625 1.078125l0 1.734375q0.296875 0 0.4375 0.140625q0.140625 0.125 0.140625 0.328125q0 0.203125 -0.15625 0.34375q-0.140625 0.125 -0.46875 0.125l-0.84375 0q-0.34375 0 -0.484375 -0.125q-0.140625 -0.140625 -0.140625 -0.34375q0 -0.203125 0.140625 -0.328125q0.140625 -0.140625 0.4375 -0.140625l0 -1.765625q0 -0.296875 -0.15625 -0.4375q-0.21875 -0.1875 -0.65625 -0.1875q-0.3125 0 -0.5625 0.125q-0.234375 0.125 -0.609375 0.53125l0 1.734375q0.359375 0 0.453125 0.078125q0.234375 0.125 0.234375 0.390625q0 0.203125 -0.15625 0.34375q-0.140625 0.125 -0.46875 0.125l-1.0625 0q-0.34375 0 -0.484375 -0.125q-0.140625 -0.140625 -0.140625 -0.34375q0 -0.25 0.21875 -0.390625q0.109375 -0.078125 0.46875 -0.078125l0 -2.265625q-0.296875 0 -0.4375 -0.125q-0.140625 -0.140625 -0.140625 -0.34375q0 -0.203125 0.140625 -0.328125q0.140625 -0.140625 0.484375 -0.140625l0.890625 0zm8.957169 2.15625q0 0.53125 -0.296875 1.03125q-0.296875 0.5 -0.890625 0.8125q-0.578125 0.296875 -1.21875 0.296875q-0.640625 0 -1.234375 -0.296875q-0.578125 -0.296875 -0.890625 -0.796875q-0.296875 -0.515625 -0.296875 -1.0625q0 -0.5625 0.3125 -1.09375q0.3125 -0.546875 0.890625 -0.859375q0.578125 -0.3125 1.21875 -0.3125q0.625 0 1.21875 0.328125q0.59375 0.3125 0.890625 0.84375q0.296875 0.53125 0.296875 1.109375zm-0.921875 0q0 -0.453125 -0.328125 -0.828125q-0.4375 -0.515625 -1.15625 -0.515625q-0.640625 0 -1.0625 0.40625q-0.421875 0.40625 -0.421875 0.9375q0 0.4375 0.421875 0.828125q0.4375 0.375 1.0625 0.375q0.625 0 1.046875 -0.375q0.4375 -0.390625 0.4375 -0.828125zm4.1134186 0.265625l-0.65625 1.71875l-0.875 0l-0.78125 -3.203125q-0.265625 -0.015625 -0.390625 -0.140625q-0.125 -0.125 -0.125 -0.328125q0 -0.203125 0.140625 -0.328125q0.140625 -0.140625 0.484375 -0.140625l0.859375 0q0.34375 0 0.484375 0.140625q0.140625 0.125 0.140625 0.328125q0 0.21875 -0.15625 0.359375q-0.125 0.109375 -0.484375 0.109375l0.359375 1.484375l0.578125 -1.515625l0.828125 0l0.578125 1.515625l0.359375 -1.484375q-0.34375 0 -0.453125 -0.0625q-0.21875 -0.140625 -0.21875 -0.40625q0 -0.203125 0.140625 -0.328125q0.15625 -0.140625 0.484375 -0.140625l0.875 0q0.34375 0 0.484375 0.140625q0.140625 0.125 0.140625 0.328125q0 0.1875 -0.125 0.328125q-0.125 0.125 -0.359375 0.140625l-0.765625 3.203125l-0.875 0l-0.671875 -1.71875zm4.6446686 -2.421875l0 0.3125q0.25 -0.21875 0.546875 -0.328125q0.3125 -0.109375 0.671875 -0.109375q0.828125 0 1.3125 0.515625q0.390625 0.421875 0.390625 1.078125l0 1.734375q0.296875 0 0.4375 0.140625q0.140625 0.125 0.140625 0.328125q0 0.203125 -0.15625 0.34375q-0.140625 0.125 -0.46875 0.125l-0.84375 0q-0.34375 0 -0.484375 -0.125q-0.140625 -0.140625 -0.140625 -0.34375q0 -0.203125 0.140625 -0.328125q0.140625 -0.140625 0.4375 -0.140625l0 -1.765625q0 -0.296875 -0.15625 -0.4375q-0.21875 -0.1875 -0.65625 -0.1875q-0.3125 0 -0.5625 0.125q-0.234375 0.125 -0.609375 0.53125l0 1.734375q0.359375 0 0.453125 0.078125q0.234375 0.125 0.234375 0.390625q0 0.203125 -0.15625 0.34375q-0.140625 0.125 -0.46875 0.125l-1.0625 0q-0.34375 0 -0.484375 -0.125q-0.140625 -0.140625 -0.140625 -0.34375q0 -0.25 0.21875 -0.390625q0.109375 -0.078125 0.46875 -0.078125l0 -2.265625q-0.296875 0 -0.4375 -0.125q-0.140625 -0.140625 -0.140625 -0.34375q0 -0.203125 0.140625 -0.328125q0.140625 -0.140625 0.484375 -0.140625l0.890625 0zm6.0040436 2.25l0 0.953125l0.9375 0q0.328125 0 0.46875 0.140625q0.15625 0.125 0.15625 0.328125q0 0.203125 -0.15625 0.34375q-0.140625 0.125 -0.46875 0.125l-2.03125 0q-0.328125 0 -0.46875 -0.125q-0.140625 -0.140625 -0.140625 -0.34375q0 -0.203125 0.140625 -0.328125q0.140625 -0.140625 0.46875 -0.140625l0.15625 0l0 -3.65625l-0.15625 0q-0.328125 0 -0.46875 -0.125q-0.140625 -0.125 -0.140625 -0.34375q0 -0.203125 0.140625 -0.328125q0.140625 -0.140625 0.46875 -0.140625l2.15625 0.015625q0.953125 0 1.5 0.515625q0.5625 0.515625 0.5625 1.25q0 0.421875 -0.1875 0.78125q-0.140625 0.265625 -0.484375 0.546875q-0.328125 0.265625 -0.671875 0.40625q-0.34375 0.125 -0.90625 0.125l-0.875 0zm0 -0.9375l0.859375 0q0.609375 0 0.96875 -0.265625q0.359375 -0.28125 0.359375 -0.671875q0 -0.328125 -0.296875 -0.578125q-0.28125 -0.25 -0.828125 -0.25l-1.0625 0l0 1.765625zm8.550919 0.84375q0 0.53125 -0.296875 1.03125q-0.296875 0.5 -0.890625 0.8125q-0.578125 0.296875 -1.21875 0.296875q-0.640625 0 -1.234375 -0.296875q-0.578125 -0.296875 -0.890625 -0.796875q-0.296875 -0.515625 -0.296875 -1.0625q0 -0.5625 0.3125 -1.09375q0.3125 -0.546875 0.890625 -0.859375q0.578125 -0.3125 1.21875 -0.3125q0.625 0 1.21875 0.328125q0.59375 0.3125 0.890625 0.84375q0.296875 0.53125 0.296875 1.109375zm-0.921875 0q0 -0.453125 -0.328125 -0.828125q-0.4375 -0.515625 -1.15625 -0.515625q-0.640625 0 -1.0625 0.40625q-0.421875 0.40625 -0.421875 0.9375q0 0.4375 0.421875 0.828125q0.4375 0.375 1.0625 0.375q0.625 0 1.046875 -0.375q0.4375 -0.390625 0.4375 -0.828125zm5.1134186 -1.0625q-0.234375 -0.140625 -0.484375 -0.203125q-0.25 -0.078125 -0.515625 -0.078125q-0.546875 0 -0.875 0.1875q-0.140625 0.078125 -0.140625 0.15625q0 0.109375 0.203125 0.203125q0.140625 0.078125 0.640625 0.15625q0.9375 0.125 1.296875 0.25q0.484375 0.171875 0.734375 0.5q0.265625 0.328125 0.265625 0.703125q0 0.5 -0.4375 0.828125q-0.640625 0.5 -1.65625 0.5q-0.390625 0 -0.734375 -0.078125q-0.34375 -0.0625 -0.640625 -0.203125q-0.0625 0.0625 -0.140625 0.09375q-0.078125 0.03125 -0.15625 0.03125q-0.21875 0 -0.359375 -0.140625q-0.125 -0.15625 -0.125 -0.484375l0 -0.3125q0 -0.34375 0.125 -0.484375q0.140625 -0.140625 0.34375 -0.140625q0.171875 0 0.28125 0.09375q0.109375 0.09375 0.171875 0.3125q0.21875 0.1875 0.515625 0.28125q0.3125 0.09375 0.703125 0.09375q0.640625 0 1.0 -0.203125q0.15625 -0.09375 0.15625 -0.203125q0 -0.1875 -0.234375 -0.3125q-0.25 -0.109375 -1.0 -0.1875q-1.125 -0.125 -1.5 -0.46875q-0.375 -0.328125 -0.375 -0.8125q0 -0.5 0.421875 -0.828125q0.578125 -0.46875 1.5 -0.46875q0.328125 0 0.625 0.0625q0.296875 0.0625 0.5625 0.1875q0.09375 -0.0625 0.171875 -0.09375q0.078125 -0.03125 0.140625 -0.03125q0.1875 0 0.3125 0.15625q0.125 0.140625 0.125 0.46875l0 0.234375q0 0.296875 -0.0625 0.40625q-0.15625 0.21875 -0.40625 0.21875q-0.171875 0 -0.296875 -0.109375q-0.125 -0.109375 -0.15625 -0.28125zm4.9259186 -2.859375l0 0.984375l-1.125 0l0 -0.984375l1.125 0zm0.125 1.765625l0 3.203125l1.109375 0q0.34375 0 0.484375 0.140625q0.140625 0.125 0.140625 0.328125q0 0.203125 -0.140625 0.34375q-0.140625 0.125 -0.484375 0.125l-3.171875 0q-0.328125 0 -0.484375 -0.125q-0.140625 -0.140625 -0.140625 -0.34375q0 -0.203125 0.140625 -0.328125q0.15625 -0.140625 0.484375 -0.140625l1.125 0l0 -2.265625l-0.75 0q-0.328125 0 -0.484375 -0.125q-0.140625 -0.140625 -0.140625 -0.34375q0 -0.203125 0.140625 -0.328125q0.140625 -0.140625 0.484375 -0.140625l1.6875 0zm4.8946686 0.9375l0 1.875q0 0.296875 0.125 0.390625q0.203125 0.15625 0.6875 0.15625q0.71875 0 1.328125 -0.3125q0.21875 -0.109375 0.359375 -0.109375q0.1875 0 0.3125 0.140625q0.140625 0.125 0.140625 0.328125q0 0.171875 -0.15625 0.3125q-0.21875 0.21875 -0.875 0.40625q-0.65625 0.171875 -1.109375 0.171875q-0.875 0 -1.3125 -0.375q-0.421875 -0.375 -0.421875 -0.921875l0 -2.0625l-0.34375 0q-0.328125 0 -0.484375 -0.125q-0.140625 -0.140625 -0.140625 -0.34375q0 -0.203125 0.140625 -0.328125q0.15625 -0.140625 0.484375 -0.140625l0.34375 0l0 -0.84375q0 -0.328125 0.125 -0.46875q0.125 -0.15625 0.34375 -0.15625q0.203125 0 0.328125 0.15625q0.125 0.140625 0.125 0.46875l0 0.84375l1.734375 0q0.328125 0 0.46875 0.140625q0.15625 0.125 0.15625 0.328125q0 0.203125 -0.15625 0.34375q-0.140625 0.125 -0.46875 0.125l-1.734375 0zm6.1759186 -2.703125l0 0.984375l-1.125 0l0 -0.984375l1.125 0zm0.125 1.765625l0 3.203125l1.109375 0q0.34375 0 0.484375 0.140625q0.140625 0.125 0.140625 0.328125q0 0.203125 -0.140625 0.34375q-0.140625 0.125 -0.484375 0.125l-3.171875 0q-0.328125 0 -0.484375 -0.125q-0.140625 -0.140625 -0.140625 -0.34375q0 -0.203125 0.140625 -0.328125q0.15625 -0.140625 0.484375 -0.140625l1.125 0l0 -2.265625l-0.75 0q-0.328125 0 -0.484375 -0.125q-0.140625 -0.140625 -0.140625 -0.34375q0 -0.203125 0.140625 -0.328125q0.140625 -0.140625 0.484375 -0.140625l1.6875 0zm7.5509186 2.15625q0 0.53125 -0.296875 1.03125q-0.296875 0.5 -0.890625 0.8125q-0.578125 0.296875 -1.21875 0.296875q-0.640625 0 -1.234375 -0.296875q-0.578125 -0.296875 -0.890625 -0.796875q-0.296875 -0.515625 -0.296875 -1.0625q0 -0.5625 0.3125 -1.09375q0.3125 -0.546875 0.890625 -0.859375q0.578125 -0.3125 1.21875 -0.3125q0.625 0 1.21875 0.328125q0.59375 0.3125 0.890625 0.84375q0.296875 0.53125 0.296875 1.109375zm-0.921875 0q0 -0.453125 -0.328125 -0.828125q-0.4375 -0.515625 -1.15625 -0.515625q-0.640625 0 -1.0625 0.40625q-0.421875 0.40625 -0.421875 0.9375q0 0.4375 0.421875 0.828125q0.4375 0.375 1.0625 0.375q0.625 0 1.046875 -0.375q0.4375 -0.390625 0.4375 -0.828125zm3.1602936 -2.15625l0 0.3125q0.25 -0.21875 0.546875 -0.328125q0.3125 -0.109375 0.671875 -0.109375q0.828125 0 1.3125 0.515625q0.390625 0.421875 0.390625 1.078125l0 1.734375q0.296875 0 0.4375 0.140625q0.140625 0.125 0.140625 0.328125q0 0.203125 -0.15625 0.34375q-0.140625 0.125 -0.46875 0.125l-0.84375 0q-0.34375 0 -0.484375 -0.125q-0.140625 -0.140625 -0.140625 -0.34375q0 -0.203125 0.140625 -0.328125q0.140625 -0.140625 0.4375 -0.140625l0 -1.765625q0 -0.296875 -0.15625 -0.4375q-0.21875 -0.1875 -0.65625 -0.1875q-0.3125 0 -0.5625 0.125q-0.234375 0.125 -0.609375 0.53125l0 1.734375q0.359375 0 0.453125 0.078125q0.234375 0.125 0.234375 0.390625q0 0.203125 -0.15625 0.34375q-0.140625 0.125 -0.46875 0.125l-1.0625 0q-0.34375 0 -0.484375 -0.125q-0.140625 -0.140625 -0.140625 -0.34375q0 -0.25 0.21875 -0.390625q0.109375 -0.078125 0.46875 -0.078125l0 -2.265625q-0.296875 0 -0.4375 -0.125q-0.140625 -0.140625 -0.140625 -0.34375q0 -0.203125 0.140625 -0.328125q0.140625 -0.140625 0.484375 -0.140625l0.890625 0z" fill-rule="nonzero"/><path fill="#000000" fill-opacity="0.0" d="m112.85827 115.362206l69.07087 0l0 15.118111l-69.07087 0z" fill-rule="evenodd"/><path fill="#ffffff" d="m115.99889 118.415955l0 0.984375l-1.125 0l0 -0.984375l1.125 0zm0.125 1.765625l0 3.203125l1.109375 0q0.34375 0 0.484375 0.140625q0.140625 0.125 0.140625 0.328125q0 0.203125 -0.140625 0.34375q-0.140625 0.125 -0.484375 0.125l-3.171875 0q-0.328125 0 -0.484375 -0.125q-0.140625 -0.140625 -0.140625 -0.34375q0 -0.203125 0.140625 -0.328125q0.15625 -0.140625 0.484375 -0.140625l1.125 0l0 -2.265625l-0.75 0q-0.328125 0 -0.484375 -0.125q-0.140625 -0.140625 -0.140625 -0.34375q0 -0.203125 0.140625 -0.328125q0.140625 -0.140625 0.484375 -0.140625l1.6875 0zm4.1915436 0l0 0.3125q0.25 -0.21875 0.546875 -0.328125q0.3125 -0.109375 0.671875 -0.109375q0.828125 0 1.3125 0.515625q0.390625 0.421875 0.390625 1.078125l0 1.734375q0.296875 0 0.4375 0.140625q0.140625 0.125 0.140625 0.328125q0 0.203125 -0.15625 0.34375q-0.140625 0.125 -0.46875 0.125l-0.84375 0q-0.34375 0 -0.484375 -0.125q-0.140625 -0.140625 -0.140625 -0.34375q0 -0.203125 0.140625 -0.328125q0.140625 -0.140625 0.4375 -0.140625l0 -1.765625q0 -0.296875 -0.15625 -0.4375q-0.21875 -0.1875 -0.65625 -0.1875q-0.3125 0 -0.5625 0.125q-0.234375 0.125 -0.609375 0.53125l0 1.734375q0.359375 0 0.453125 0.078125q0.234375 0.125 0.234375 0.390625q0 0.203125 -0.15625 0.34375q-0.140625 0.125 -0.46875 0.125l-1.0625 0q-0.34375 0 -0.484375 -0.125q-0.140625 -0.140625 -0.140625 -0.34375q0 -0.25 0.21875 -0.390625q0.109375 -0.078125 0.46875 -0.078125l0 -2.265625q-0.296875 0 -0.4375 -0.125q-0.140625 -0.140625 -0.140625 -0.34375q0 -0.203125 0.140625 -0.328125q0.140625 -0.140625 0.484375 -0.140625l0.890625 0zm5.3790436 3.625l0 1.53125l0.5625 0q0.328125 0 0.46875 0.125q0.15625 0.140625 0.15625 0.34375q0 0.203125 -0.15625 0.328125q-0.140625 0.140625 -0.46875 0.140625l-1.65625 0q-0.34375 0 -0.484375 -0.140625q-0.140625 -0.125 -0.140625 -0.328125q0 -0.203125 0.140625 -0.34375q0.15625 -0.125 0.484375 -0.125l0.15625 0l0 -4.21875l-0.15625 0q-0.34375 0 -0.484375 -0.125q-0.140625 -0.140625 -0.140625 -0.34375q0 -0.203125 0.140625 -0.328125q0.140625 -0.140625 0.484375 -0.140625l1.09375 0l0 0.328125q0.328125 -0.234375 0.671875 -0.34375q0.359375 -0.109375 0.71875 -0.109375q0.9687424 0 1.6406174 0.65625q0.671875 0.65625 0.671875 1.484375q0 0.921875 -0.796875 1.53125q-0.6718674 0.5 -1.4999924 0.5q-0.359375 0 -0.71875 -0.109375q-0.34375 -0.109375 -0.6875 -0.3125zm2.7656174 -1.609375q0 -0.1875 -0.15625 -0.484375q-0.15625 -0.3125 -0.48436737 -0.515625q-0.3125 -0.203125 -0.734375 -0.203125q-0.703125 0 -1.109375 0.53125q-0.28125 0.359375 -0.28125 0.6875q0 0.375 0.390625 0.734375q0.40625 0.34375 1.0 0.34375q0.578125 0 0.9687424 -0.34375q0.40625 -0.359375 0.40625 -0.75zm5.9727936 -2.015625l0 3.203125q0.296875 0 0.4375 0.140625q0.140625 0.125 0.140625 0.328125q0 0.203125 -0.140625 0.34375q-0.140625 0.125 -0.484375 0.125l-0.890625 0l0 -0.21875q-0.390625 0.1875 -0.765625 0.28125q-0.359375 0.09375 -0.6875 0.09375q-0.453125 0 -0.796875 -0.1875q-0.34375 -0.203125 -0.53125 -0.546875q-0.140625 -0.25 -0.140625 -0.609375l0 -2.015625l-0.15625 0q-0.34375 0 -0.484375 -0.125q-0.140625 -0.140625 -0.140625 -0.34375q0 -0.203125 0.140625 -0.328125q0.140625 -0.140625 0.484375 -0.140625l1.09375 0l0 2.78125q0 0.296875 0.140625 0.4375q0.140625 0.140625 0.4375 0.140625q0.28125 0 0.609375 -0.109375q0.328125 -0.109375 0.796875 -0.40625l0 -1.90625l-0.328125 0q-0.34375 0 -0.484375 -0.125q-0.140625 -0.140625 -0.140625 -0.34375q0 -0.203125 0.140625 -0.328125q0.140625 -0.140625 0.484375 -0.140625l1.265625 0zm3.3790436 0.9375l0 1.875q0 0.296875 0.125 0.390625q0.203125 0.15625 0.6875 0.15625q0.71875 0 1.328125 -0.3125q0.21875 -0.109375 0.359375 -0.109375q0.1875 0 0.3125 0.140625q0.140625 0.125 0.140625 0.328125q0 0.171875 -0.15625 0.3125q-0.21875 0.21875 -0.875 0.40625q-0.65625 0.171875 -1.109375 0.171875q-0.875 0 -1.3125 -0.375q-0.421875 -0.375 -0.421875 -0.921875l0 -2.0625l-0.34375 0q-0.328125 0 -0.484375 -0.125q-0.140625 -0.140625 -0.140625 -0.34375q0 -0.203125 0.140625 -0.328125q0.15625 -0.140625 0.484375 -0.140625l0.34375 0l0 -0.84375q0 -0.328125 0.125 -0.46875q0.125 -0.15625 0.34375 -0.15625q0.203125 0 0.328125 0.15625q0.125 0.140625 0.125 0.46875l0 0.84375l1.734375 0q0.328125 0 0.46875 0.140625q0.15625 0.125 0.15625 0.328125q0 0.203125 -0.15625 0.34375q-0.140625 0.125 -0.46875 0.125l-1.734375 0zm6.8477936 0.15625q-0.234375 -0.140625 -0.484375 -0.203125q-0.25 -0.078125 -0.515625 -0.078125q-0.546875 0 -0.875 0.1875q-0.140625 0.078125 -0.140625 0.15625q0 0.109375 0.203125 0.203125q0.140625 0.078125 0.640625 0.15625q0.9375 0.125 1.296875 0.25q0.484375 0.171875 0.734375 0.5q0.265625 0.328125 0.265625 0.703125q0 0.5 -0.4375 0.828125q-0.640625 0.5 -1.65625 0.5q-0.390625 0 -0.734375 -0.078125q-0.34375 -0.0625 -0.640625 -0.203125q-0.0625 0.0625 -0.140625 0.09375q-0.078125 0.03125 -0.15625 0.03125q-0.21875 0 -0.359375 -0.140625q-0.125 -0.15625 -0.125 -0.484375l0 -0.3125q0 -0.34375 0.125 -0.484375q0.140625 -0.140625 0.34375 -0.140625q0.171875 0 0.28125 0.09375q0.109375 0.09375 0.171875 0.3125q0.21875 0.1875 0.515625 0.28125q0.3125 0.09375 0.703125 0.09375q0.640625 0 1.0 -0.203125q0.15625 -0.09375 0.15625 -0.203125q0 -0.1875 -0.234375 -0.3125q-0.25 -0.109375 -1.0 -0.1875q-1.125 -0.125 -1.5 -0.46875q-0.375 -0.328125 -0.375 -0.8125q0 -0.5 0.421875 -0.828125q0.578125 -0.46875 1.5 -0.46875q0.328125 0 0.625 0.0625q0.296875 0.0625 0.5625 0.1875q0.09375 -0.0625 0.171875 -0.09375q0.078125 -0.03125 0.140625 -0.03125q0.1875 0 0.3125 0.15625q0.125 0.140625 0.125 0.46875l0 0.234375q0 0.296875 -0.0625 0.40625q-0.15625 0.21875 -0.40625 0.21875q-0.171875 0 -0.296875 -0.109375q-0.125 -0.109375 -0.15625 -0.28125zm3.1290436 -0.671875l0 2.78125l0.328125 0q0.34375 0 0.484375 0.140625q0.140625 0.125 0.140625 0.328125q0 0.203125 -0.140625 0.34375q-0.140625 0.125 -0.484375 0.125l-1.21875 0q-0.34375 0 -0.484375 -0.125q-0.140625 -0.140625 -0.140625 -0.34375q0 -0.203125 0.140625 -0.328125q0.140625 -0.140625 0.4375 -0.140625l0 -3.65625q-0.25 -0.015625 -0.375 -0.140625q-0.125 -0.125 -0.125 -0.328125q0 -0.203125 0.140625 -0.328125q0.15625 -0.140625 0.484375 -0.140625l1.03125 0.015625l1.265625 2.8125l1.25 -2.828125l1.03125 0.015625q0.34375 0 0.484375 0.125q0.140625 0.125 0.140625 0.328125q0 0.203125 -0.125 0.328125q-0.125 0.125 -0.375 0.140625l0 3.65625q0.296875 0 0.4375 0.140625q0.140625 0.125 0.140625 0.328125q0 0.203125 -0.140625 0.34375q-0.140625 0.125 -0.484375 0.125l-1.21875 0q-0.34375 0 -0.484375 -0.125q-0.140625 -0.140625 -0.140625 -0.34375q0 -0.203125 0.140625 -0.328125q0.140625 -0.140625 0.484375 -0.140625l0.328125 0l0 -2.78125l-1.0625 2.40625l-0.8125 0l-1.078125 -2.40625zm7.8946686 3.71875l0 -0.21875q-0.359375 0.1875 -0.78125 0.28125q-0.421875 0.09375 -0.765625 0.09375q-0.75 0 -1.21875 -0.390625q-0.46875 -0.40625 -0.46875 -0.890625q0 -0.59375 0.59375 -1.09375q0.609375 -0.5 1.65625 -0.5q0.421875 0 0.984375 0.09375l0 -0.21875q0 -0.21875 -0.1875 -0.34375q-0.171875 -0.140625 -0.671875 -0.140625q-0.421875 0 -1.078125 0.171875q-0.25 0.046875 -0.390625 0.046875q-0.1875 0 -0.3125 -0.125q-0.125 -0.140625 -0.125 -0.34375q0 -0.125 0.046875 -0.203125q0.046875 -0.09375 0.125 -0.140625q0.078125 -0.046875 0.34375 -0.125q0.34375 -0.09375 0.703125 -0.15625q0.359375 -0.0625 0.640625 -0.0625q0.875 0 1.359375 0.390625q0.484375 0.375 0.484375 1.015625l0 1.921875l0.15625 0q0.328125 0 0.46875 0.140625q0.15625 0.125 0.15625 0.328125q0 0.203125 -0.15625 0.34375q-0.140625 0.125 -0.46875 0.125l-1.09375 0zm0 -1.671875q-0.5625 -0.109375 -1.03125 -0.109375q-0.578125 0 -0.984375 0.28125q-0.25 0.171875 -0.25 0.359375q0 0.125 0.125 0.21875q0.21875 0.140625 0.625 0.140625q0.328125 0 0.75 -0.125q0.4375 -0.140625 0.765625 -0.359375l0 -0.40625zm4.5196686 -1.53125l0 1.875q0 0.296875 0.125 0.390625q0.203125 0.15625 0.6875 0.15625q0.71875 0 1.328125 -0.3125q0.21875 -0.109375 0.359375 -0.109375q0.1875 0 0.3125 0.140625q0.140625 0.125 0.140625 0.328125q0 0.171875 -0.15625 0.3125q-0.21875 0.21875 -0.875 0.40625q-0.65625 0.171875 -1.109375 0.171875q-0.875 0 -1.3125 -0.375q-0.421875 -0.375 -0.421875 -0.921875l0 -2.0625l-0.34375 0q-0.328125 0 -0.484375 -0.125q-0.140625 -0.140625 -0.140625 -0.34375q0 -0.203125 0.140625 -0.328125q0.15625 -0.140625 0.484375 -0.140625l0.34375 0l0 -0.84375q0 -0.328125 0.125 -0.46875q0.125 -0.15625 0.34375 -0.15625q0.203125 0 0.328125 0.15625q0.125 0.140625 0.125 0.46875l0 0.84375l1.734375 0q0.328125 0 0.46875 0.140625q0.15625 0.125 0.15625 0.328125q0 0.203125 -0.15625 0.34375q-0.140625 0.125 -0.46875 0.125l-1.734375 0zm5.6446686 -0.9375l0 0.59375q0.578125 -0.421875 0.921875 -0.5625q0.34375 -0.15625 0.640625 -0.15625q0.453125 0 0.875 0.34375q0.296875 0.234375 0.296875 0.46875q0 0.203125 -0.140625 0.34375q-0.140625 0.125 -0.328125 0.125q-0.171875 0 -0.375 -0.171875q-0.1875 -0.171875 -0.34375 -0.171875q-0.1875 0 -0.578125 0.25q-0.390625 0.25 -0.96875 0.734375l0 1.40625l1.328125 0q0.328125 0 0.46875 0.140625q0.15625 0.125 0.15625 0.328125q0 0.203125 -0.15625 0.34375q-0.140625 0.125 -0.46875 0.125l-2.828125 0q-0.328125 0 -0.484375 -0.125q-0.140625 -0.140625 -0.140625 -0.34375q0 -0.203125 0.140625 -0.328125q0.15625 -0.140625 0.484375 -0.140625l0.5625 0l0 -2.265625l-0.34375 0q-0.328125 0 -0.484375 -0.125q-0.140625 -0.140625 -0.140625 -0.34375q0 -0.203125 0.140625 -0.328125q0.15625 -0.140625 0.484375 -0.140625l1.28125 0zm6.1290436 -1.765625l0 0.984375l-1.125 0l0 -0.984375l1.125 0zm0.125 1.765625l0 3.203125l1.109375 0q0.34375 0 0.484375 0.140625q0.140625 0.125 0.140625 0.328125q0 0.203125 -0.140625 0.34375q-0.140625 0.125 -0.484375 0.125l-3.171875 0q-0.328125 0 -0.484375 -0.125q-0.140625 -0.140625 -0.140625 -0.34375q0 -0.203125 0.140625 -0.328125q0.15625 -0.140625 0.484375 -0.140625l1.125 0l0 -2.265625l-0.75 0q-0.328125 0 -0.484375 -0.125q-0.140625 -0.140625 -0.140625 -0.34375q0 -0.203125 0.140625 -0.328125q0.140625 -0.140625 0.484375 -0.140625l1.6875 0zm5.8321686 1.984375l1.421875 1.21875q0.25 0.015625 0.375 0.15625q0.125 0.125 0.125 0.3125q0 0.203125 -0.140625 0.34375q-0.140625 0.125 -0.484375 0.125l-1.0625 0q-0.328125 0 -0.484375 -0.125q-0.140625 -0.140625 -0.140625 -0.34375q0 -0.171875 0.109375 -0.296875q0.109375 -0.125 0.28125 -0.171875l-0.703125 -0.59375l-0.703125 0.59375q0.21875 0.0625 0.296875 0.171875q0.09375 0.109375 0.09375 0.296875q0 0.203125 -0.140625 0.34375q-0.140625 0.125 -0.46875 0.125l-1.0625 0q-0.328125 0 -0.46875 -0.125q-0.140625 -0.140625 -0.140625 -0.34375q0 -0.1875 0.125 -0.3125q0.125 -0.140625 0.375 -0.15625l1.390625 -1.21875l-1.234375 -1.046875q-0.234375 -0.015625 -0.359375 -0.140625q-0.125 -0.140625 -0.125 -0.328125q0 -0.203125 0.140625 -0.328125q0.140625 -0.140625 0.484375 -0.140625l0.875 0q0.328125 0 0.46875 0.140625q0.15625 0.125 0.15625 0.328125q0 0.265625 -0.265625 0.4375l0.578125 0.46875l0.546875 -0.484375q-0.25 -0.171875 -0.25 -0.40625q0 -0.21875 0.140625 -0.34375q0.140625 -0.140625 0.484375 -0.140625l0.859375 0q0.34375 0 0.484375 0.140625q0.140625 0.125 0.140625 0.328125q0 0.1875 -0.125 0.328125q-0.125 0.125 -0.359375 0.140625l-1.234375 1.046875z" fill-rule="nonzero"/><path fill="#000000" fill-opacity="0.0" d="m157.44977 13.590768l84.50394 0l0 35.559055l-84.50394 0z" fill-rule="evenodd"/><path stroke="#ffffff" stroke-width="3.0" stroke-linejoin="round" stroke-linecap="butt" d="m157.44977 13.590768l84.50394 0l0 35.559055l-84.50394 0z" fill-rule="evenodd"/><path fill="#ffffff" d="m177.75406 35.047016q-0.171875 0.21875 -0.28125 0.28125q-0.109375 0.046875 -0.265625 0.046875q-0.296875 0 -0.484375 -0.203125q-0.1875 -0.203125 -0.1875 -0.671875l0 -0.90625q0 -0.484375 0.1875 -0.6875q0.1875 -0.203125 0.484375 -0.203125q0.234375 0 0.390625 0.125q0.171875 0.125 0.25 0.421875q0.078125 0.28125 0.171875 0.390625q0.1875 0.1875 0.671875 0.40625q0.484375 0.203125 1.0625 0.203125q0.890625 0 1.453125 -0.421875q0.375 -0.25 0.375 -0.625q0 -0.234375 -0.1875 -0.453125q-0.171875 -0.21875 -0.5625 -0.359375q-0.265625 -0.109375 -1.171875 -0.28125q-1.09375 -0.1875 -1.65625 -0.46875q-0.546875 -0.296875 -0.875 -0.8125q-0.328125 -0.53125 -0.328125 -1.125q0 -0.96875 0.796875 -1.6875q0.796875 -0.71875 2.078125 -0.71875q0.515625 0 0.953125 0.125q0.453125 0.109375 0.8125 0.34375q0.25 -0.25 0.515625 -0.25q0.296875 0 0.46875 0.203125q0.1875 0.203125 0.1875 0.671875l0 1.0q0 0.484375 -0.1875 0.6875q-0.171875 0.203125 -0.46875 0.203125q-0.25 0 -0.4375 -0.140625q-0.140625 -0.109375 -0.21875 -0.4375q-0.0625 -0.34375 -0.171875 -0.484375q-0.1875 -0.25 -0.5625 -0.40625q-0.375 -0.171875 -0.875 -0.171875q-0.71875 0 -1.140625 0.34375q-0.421875 0.328125 -0.421875 0.6875q0 0.25 0.171875 0.484375q0.171875 0.21875 0.5 0.359375q0.21875 0.078125 1.25 0.28125q1.03125 0.203125 1.578125 0.453125q0.546875 0.234375 0.90625 0.75q0.375 0.515625 0.375 1.21875q0 1.0 -0.703125 1.59375q-0.921875 0.765625 -2.359375 0.765625q-0.546875 0 -1.078125 -0.140625q-0.515625 -0.125 -1.015625 -0.390625zm9.623184 -4.234375l0 2.671875q0 0.4375 0.171875 0.578125q0.28125 0.203125 0.984375 0.203125q1.015625 0 1.875 -0.4375q0.34375 -0.15625 0.53125 -0.15625q0.25 0 0.4375 0.203125q0.203125 0.1875 0.203125 0.46875q0 0.25 -0.203125 0.4375q-0.328125 0.3125 -1.265625 0.578125q-0.9375 0.25 -1.578125 0.25q-1.25 0 -1.875 -0.53125q-0.609375 -0.546875 -0.609375 -1.328125l0 -2.9375l-0.484375 0q-0.484375 0 -0.6875 -0.1875q-0.203125 -0.1875 -0.203125 -0.484375q0 -0.28125 0.203125 -0.46875q0.203125 -0.1875 0.6875 -0.1875l0.484375 0l0 -1.203125q0 -0.484375 0.171875 -0.6875q0.1875 -0.203125 0.484375 -0.203125q0.296875 0 0.484375 0.203125q0.1875 0.203125 0.1875 0.6875l0 1.203125l2.46875 0q0.484375 0 0.6875 0.1875q0.203125 0.1875 0.203125 0.484375q0 0.28125 -0.203125 0.46875q-0.203125 0.1875 -0.6875 0.1875l-2.46875 0zm8.045059 -1.328125l0 0.828125q0.84375 -0.609375 1.328125 -0.796875q0.484375 -0.203125 0.90625 -0.203125q0.65625 0 1.265625 0.46875q0.421875 0.328125 0.421875 0.671875q0 0.28125 -0.203125 0.484375q-0.203125 0.203125 -0.484375 0.203125q-0.25 0 -0.53125 -0.25q-0.265625 -0.25 -0.46875 -0.25q-0.28125 0 -0.84375 0.359375q-0.546875 0.34375 -1.390625 1.046875l0 2.015625l1.90625 0q0.484375 0 0.6875 0.1875q0.203125 0.171875 0.203125 0.484375q0 0.28125 -0.203125 0.46875q-0.203125 0.1875 -0.6875 0.1875l-4.03125 0q-0.484375 0 -0.6875 -0.1875q-0.203125 -0.1875 -0.203125 -0.484375q0 -0.296875 0.203125 -0.46875q0.203125 -0.1875 0.6875 -0.1875l0.796875 0l0 -3.25l-0.484375 0q-0.484375 0 -0.6875 -0.1875q-0.203125 -0.1875 -0.203125 -0.484375q0 -0.28125 0.203125 -0.46875q0.203125 -0.1875 0.6875 -0.1875l1.8125 0zm8.763809 -2.53125l0 1.40625l-1.59375 0l0 -1.40625l1.59375 0zm0.171875 2.53125l0 4.578125l1.609375 0q0.46875 0 0.671875 0.1875q0.21875 0.171875 0.21875 0.484375q0 0.28125 -0.21875 0.46875q-0.203125 0.1875 -0.671875 0.1875l-4.546875 0q-0.46875 0 -0.6875 -0.1875q-0.203125 -0.1875 -0.203125 -0.484375q0 -0.296875 0.203125 -0.46875q0.21875 -0.1875 0.6875 -0.1875l1.609375 0l0 -3.25l-1.078125 0q-0.46875 0 -0.6875 -0.1875q-0.203125 -0.1875 -0.203125 -0.484375q0 -0.28125 0.203125 -0.46875q0.203125 -0.1875 0.6875 -0.1875l2.40625 0zm5.998184 0l0 0.453125q0.359375 -0.3125 0.796875 -0.46875q0.4375 -0.15625 0.953125 -0.15625q1.1875 0 1.875 0.734375q0.546875 0.578125 0.546875 1.53125l0 2.484375q0.421875 0 0.625 0.1875q0.203125 0.171875 0.203125 0.484375q0 0.28125 -0.203125 0.46875q-0.203125 0.1875 -0.6875 0.1875l-1.203125 0q-0.484375 0 -0.6875 -0.1875q-0.203125 -0.1875 -0.203125 -0.484375q0 -0.296875 0.1875 -0.46875q0.203125 -0.1875 0.640625 -0.1875l0 -2.53125q0 -0.421875 -0.234375 -0.625q-0.3125 -0.265625 -0.921875 -0.265625q-0.46875 0 -0.8125 0.1875q-0.34375 0.171875 -0.875 0.75l0 2.484375q0.5 0 0.65625 0.09375q0.3125 0.1875 0.3125 0.578125q0 0.28125 -0.203125 0.46875q-0.203125 0.1875 -0.6875 0.1875l-1.515625 0q-0.484375 0 -0.6875 -0.1875q-0.203125 -0.1875 -0.203125 -0.484375q0 -0.359375 0.3125 -0.5625q0.15625 -0.09375 0.671875 -0.09375l0 -3.25q-0.421875 0 -0.625 -0.1875q-0.203125 -0.1875 -0.203125 -0.484375q0 -0.28125 0.203125 -0.46875q0.203125 -0.1875 0.6875 -0.1875l1.28125 0zm10.810684 0.390625l0 -0.390625l1.5625 0q0.484375 0 0.6875 0.1875q0.203125 0.1875 0.203125 0.484375q0 0.28125 -0.203125 0.46875q-0.203125 0.1875 -0.6875 0.1875l-0.234375 0l0 4.859375q0 0.703125 -0.296875 1.21875q-0.296875 0.53125 -0.90625 0.90625q-0.609375 0.375 -1.375 0.375l-1.515625 0q-0.484375 0 -0.6875 -0.1875q-0.203125 -0.171875 -0.203125 -0.46875q0 -0.296875 0.203125 -0.484375q0.203125 -0.1875 0.6875 -0.1875l1.46875 0q0.625 0 0.953125 -0.34375q0.34375 -0.328125 0.34375 -0.828125l0 -0.65625q-0.4375 0.296875 -0.90625 0.4375q-0.453125 0.140625 -0.9375 0.140625q-1.359375 0 -2.28125 -0.90625q-0.921875 -0.90625 -0.921875 -2.25q0 -1.328125 0.921875 -2.234375q0.921875 -0.921875 2.28125 -0.921875q0.5 0 0.953125 0.15625q0.46875 0.140625 0.890625 0.4375zm-0.015625 2.5625q0 -0.734375 -0.546875 -1.265625q-0.53125 -0.546875 -1.296875 -0.546875q-0.765625 0 -1.3125 0.546875q-0.53125 0.53125 -0.53125 1.265625q0 0.734375 0.53125 1.28125q0.546875 0.53125 1.3125 0.53125q0.765625 0 1.296875 -0.53125q0.546875 -0.546875 0.546875 -1.28125z" fill-rule="nonzero"/><path fill="#000000" fill-opacity="0.0" d="m241.9537 31.370295l106.01575 0" fill-rule="evenodd"/><path stroke="#ffffff" stroke-width="3.0" stroke-linejoin="round" stroke-linecap="butt" d="m241.9537 31.370295l89.13092 0" fill-rule="evenodd"/><path fill="#ffffff" stroke="#ffffff" stroke-width="3.0" stroke-linecap="butt" d="m331.08463 31.370295l7.1348267 4.995859l7.1348267 -4.995859l-7.1348267 -4.995861z" fill-rule="evenodd"/><path fill="#000000" fill-opacity="0.0" d="m284.6614 16.251968l43.18112 0l0 15.118111l-43.18112 0z" fill-rule="evenodd"/><path fill="#ffffff" d="m302.66605 24.071342l1.0 -2.0625q-0.375 0 -0.484375 -0.0625q-0.21875 -0.140625 -0.21875 -0.40625q0 -0.203125 0.140625 -0.328125q0.140625 -0.140625 0.484375 -0.140625l1.28125 0q0.328125 0 0.46875 0.140625q0.15625 0.125 0.15625 0.328125q0 0.203125 -0.15625 0.34375q-0.140625 0.125 -0.46875 0.125l-0.15625 0l-1.5625 3.203125l-0.984375 0l-1.5625 -3.203125l-0.125 0q-0.34375 0 -0.484375 -0.125q-0.140625 -0.140625 -0.140625 -0.34375q0 -0.203125 0.140625 -0.328125q0.140625 -0.140625 0.484375 -0.140625l1.25 0q0.328125 0 0.46875 0.140625q0.15625 0.125 0.15625 0.328125q0 0.265625 -0.21875 0.40625q-0.109375 0.0625 -0.484375 0.0625l1.015625 2.0625zm6.425934 1.140625l0 -0.21875q-0.359375 0.1875 -0.78125 0.28125q-0.421875 0.09375 -0.765625 0.09375q-0.75 0 -1.21875 -0.390625q-0.46875 -0.40625 -0.46875 -0.890625q0 -0.59375 0.59375 -1.09375q0.609375 -0.5 1.65625 -0.5q0.421875 0 0.984375 0.09375l0 -0.21875q0 -0.21875 -0.1875 -0.34375q-0.171875 -0.140625 -0.671875 -0.140625q-0.421875 0 -1.078125 0.171875q-0.25 0.046875 -0.390625 0.046875q-0.1875 0 -0.3125 -0.125q-0.125 -0.140625 -0.125 -0.34375q0 -0.125 0.046875 -0.203125q0.046875 -0.09375 0.125 -0.140625q0.078125 -0.046875 0.34375 -0.125q0.34375 -0.09375 0.703125 -0.15625q0.359375 -0.0625 0.640625 -0.0625q0.875 0 1.359375 0.390625q0.484375 0.375 0.484375 1.015625l0 1.921875l0.15625 0q0.328125 0 0.46875 0.140625q0.15625 0.125 0.15625 0.328125q0 0.203125 -0.15625 0.34375q-0.140625 0.125 -0.46875 0.125l-1.09375 0zm0 -1.671875q-0.5625 -0.109375 -1.03125 -0.109375q-0.578125 0 -0.984375 0.28125q-0.25 0.171875 -0.25 0.359375q0 0.125 0.125 0.21875q0.21875 0.140625 0.625 0.140625q0.328125 0 0.75 -0.125q0.4375 -0.140625 0.765625 -0.359375l0 -0.40625zm5.2227783 -4.234375l0 4.96875l1.125 0q0.328125 0 0.46875 0.140625q0.15625 0.125 0.15625 0.328125q0 0.203125 -0.15625 0.34375q-0.140625 0.125 -0.46875 0.125l-3.171875 0q-0.34375 0 -0.484375 -0.125q-0.140625 -0.140625 -0.140625 -0.34375q0 -0.203125 0.140625 -0.328125q0.140625 -0.140625 0.484375 -0.140625l1.109375 0l0 -4.03125l-0.75 0q-0.328125 0 -0.484375 -0.125q-0.140625 -0.140625 -0.140625 -0.34375q0 -0.203125 0.140625 -0.328125q0.15625 -0.140625 0.484375 -0.140625l1.6875 0zm7.113434 1.765625l0 3.203125q0.296875 0 0.4375 0.140625q0.140625 0.125 0.140625 0.328125q0 0.203125 -0.140625 0.34375q-0.140625 0.125 -0.484375 0.125l-0.890625 0l0 -0.21875q-0.390625 0.1875 -0.765625 0.28125q-0.359375 0.09375 -0.6875 0.09375q-0.453125 0 -0.796875 -0.1875q-0.34375 -0.203125 -0.53125 -0.546875q-0.140625 -0.25 -0.140625 -0.609375l0 -2.015625l-0.15625 0q-0.34375 0 -0.484375 -0.125q-0.140625 -0.140625 -0.140625 -0.34375q0 -0.203125 0.140625 -0.328125q0.140625 -0.140625 0.484375 -0.140625l1.09375 0l0 2.78125q0 0.296875 0.140625 0.4375q0.140625 0.140625 0.4375 0.140625q0.28125 0 0.609375 -0.109375q0.328125 -0.109375 0.796875 -0.40625l0 -1.90625l-0.328125 0q-0.34375 0 -0.484375 -0.125q-0.140625 -0.140625 -0.140625 -0.34375q0 -0.203125 0.140625 -0.328125q0.140625 -0.140625 0.484375 -0.140625l1.265625 0zm5.9571533 2.546875l-3.828125 0q0.140625 0.359375 0.515625 0.59375q0.375 0.21875 1.0 0.21875q0.53125 0 1.390625 -0.21875q0.34375 -0.09375 0.484375 -0.09375q0.1875 0 0.3125 0.140625q0.125 0.125 0.125 0.3125q0 0.1875 -0.125 0.3125q-0.1875 0.171875 -0.890625 0.328125q-0.703125 0.15625 -1.359375 0.15625q-1.125 0 -1.796875 -0.625q-0.671875 -0.640625 -0.671875 -1.578125q0 -0.984375 0.71875 -1.59375q0.734375 -0.625 1.6875 -0.625q0.5625 0 1.03125 0.203125q0.484375 0.203125 0.71875 0.4375q0.328125 0.34375 0.546875 0.828125q0.140625 0.34375 0.140625 0.8125l0 0.390625zm-1.03125 -0.9375q-0.21875 -0.390625 -0.5625 -0.59375q-0.34375 -0.203125 -0.828125 -0.203125q-0.46875 0 -0.8125 0.203125q-0.34375 0.203125 -0.5625 0.59375l2.765625 0z" fill-rule="nonzero"/><path fill="#cfe2f3" d="m347.96924 31.385826l0 0c0 -15.664013 12.20462 -28.362204 27.259827 -28.362204l0 0c7.229767 0 14.163422 2.9881525 19.275635 8.307098c5.112213 5.318944 7.9842224 12.532983 7.9842224 20.055107l0 0c0 15.664013 -12.204651 28.362206 -27.259857 28.362206l0 0c-15.055206 0 -27.259827 -12.698193 -27.259827 -28.362206z" fill-rule="evenodd"/><path stroke="#4e8aeb" stroke-width="3.0" stroke-linejoin="round" stroke-linecap="butt" d="m347.96924 31.385826l0 0c0 -15.664013 12.20462 -28.362204 27.259827 -28.362204l0 0c7.229767 0 14.163422 2.9881525 19.275635 8.307098c5.112213 5.318944 7.9842224 12.532983 7.9842224 20.055107l0 0c0 15.664013 -12.204651 28.362206 -27.259857 28.362206l0 0c-15.055206 0 -27.259827 -12.698193 -27.259827 -28.362206z" fill-rule="evenodd"/><path fill="#cfe2f3" d="m392.08966 40.163944l0 0c-3.8216858 8.244152 -12.474274 12.67598 -20.972717 10.742161c-8.498444 -1.9338188 -14.653778 -9.735176 -14.919708 -18.909462c-0.26593018 -9.174288 5.426056 -17.358437 13.7966 -19.837301c8.370544 -2.4788647 17.26361 1.3860502 21.555634 9.368044l-8.601135 5.1553555c-1.9510803 -4.07251 -6.150482 -6.1087646 -10.141632 -4.9175854c-3.99115 1.1911812 -6.7253723 5.2968216 -6.60318 9.915178c0.122161865 4.6183567 3.068634 8.535982 7.1157837 9.461119c4.047119 0.92513657 8.131531 -1.385292 9.863922 -5.579712z" fill-rule="evenodd"/><path stroke="#4e8aeb" stroke-width="3.0" stroke-linejoin="round" stroke-linecap="butt" d="m392.08966 40.163944l0 0c-3.8216858 8.244152 -12.474274 12.67598 -20.972717 10.742161c-8.498444 -1.9338188 -14.653778 -9.735176 -14.919708 -18.909462c-0.26593018 -9.174288 5.426056 -17.358437 13.7966 -19.837301c8.370544 -2.4788647 17.26361 1.3860502 21.555634 9.368044l-8.601135 5.1553555c-1.9510803 -4.07251 -6.150482 -6.1087646 -10.141632 -4.9175854c-3.99115 1.1911812 -6.7253723 5.2968216 -6.60318 9.915178c0.122161865 4.6183567 3.068634 8.535982 7.1157837 9.461119c4.047119 0.92513657 8.131531 -1.385292 9.863922 -5.579712z" fill-rule="evenodd"/><path fill="#000000" fill-opacity="0.0" d="m313.9449 62.816273l128.12598 0l0 25.700787l-128.12598 0z" fill-rule="evenodd"/><path fill="#ffffff" d="m362.6843 78.0694l0 5.21875l1.34375 0q0.484375 0 0.6875 0.1875q0.203125 0.171875 0.203125 0.484375q0 0.28125 -0.203125 0.46875q-0.203125 0.1875 -0.6875 0.1875l-4.03125 0q-0.484375 0 -0.6875 -0.1875q-0.203125 -0.1875 -0.203125 -0.484375q0 -0.296875 0.203125 -0.46875q0.203125 -0.1875 0.6875 -0.1875l1.34375 0l0 -5.21875l-1.34375 0q-0.484375 0 -0.6875 -0.1875q-0.203125 -0.1875 -0.203125 -0.484375q0 -0.296875 0.203125 -0.484375q0.203125 -0.1875 0.6875 -0.1875l4.03125 0q0.484375 0 0.6875 0.1875q0.203125 0.1875 0.203125 0.484375q0 0.296875 -0.203125 0.484375q-0.203125 0.1875 -0.6875 0.1875l-1.34375 0zm5.982544 0.640625l0 0.453125q0.359375 -0.3125 0.796875 -0.46875q0.4375 -0.15625 0.953125 -0.15625q1.1875 0 1.875 0.734375q0.546875 0.578125 0.546875 1.53125l0 2.484375q0.421875 0 0.625 0.1875q0.203125 0.171875 0.203125 0.484375q0 0.28125 -0.203125 0.46875q-0.203125 0.1875 -0.6875 0.1875l-1.203125 0q-0.484375 0 -0.6875 -0.1875q-0.203125 -0.1875 -0.203125 -0.484375q0 -0.296875 0.1875 -0.46875q0.203125 -0.1875 0.640625 -0.1875l0 -2.53125q0 -0.421875 -0.234375 -0.625q-0.3125 -0.265625 -0.921875 -0.265625q-0.46875 0 -0.8125 0.1875q-0.34375 0.171875 -0.875 0.75l0 2.484375q0.5 0 0.65625 0.09375q0.3125 0.1875 0.3125 0.578125q0 0.28125 -0.203125 0.46875q-0.203125 0.1875 -0.6875 0.1875l-1.515625 0q-0.484375 0 -0.6875 -0.1875q-0.203125 -0.1875 -0.203125 -0.484375q0 -0.359375 0.3125 -0.5625q0.15625 -0.09375 0.671875 -0.09375l0 -3.25q-0.421875 0 -0.625 -0.1875q-0.203125 -0.1875 -0.203125 -0.484375q0 -0.28125 0.203125 -0.46875q0.203125 -0.1875 0.6875 -0.1875l1.28125 0zm7.6856995 5.171875l0 2.1875l0.796875 0q0.484375 0 0.6875 0.1875q0.203125 0.1875 0.203125 0.484375q0 0.296875 -0.203125 0.46875q-0.203125 0.1875 -0.6875 0.1875l-2.359375 0q-0.484375 0 -0.6875 -0.1875q-0.203125 -0.171875 -0.203125 -0.46875q0 -0.296875 0.203125 -0.484375q0.21875 -0.1875 0.6875 -0.1875l0.234375 0l0 -6.03125l-0.234375 0q-0.484375 0 -0.6875 -0.1875q-0.203125 -0.1875 -0.203125 -0.484375q0 -0.28125 0.203125 -0.46875q0.203125 -0.1875 0.6875 -0.1875l1.5625 0l0 0.453125q0.46875 -0.3125 0.96875 -0.46875q0.5 -0.15625 1.03125 -0.15625q1.359375 0 2.328125 0.921875q0.96875 0.921875 0.96875 2.125q0 1.3125 -1.140625 2.171875q-0.953125 0.71875 -2.140625 0.71875q-0.515625 0 -1.015625 -0.140625q-0.5 -0.15625 -1.0 -0.453125zm3.953125 -2.296875q0 -0.28125 -0.21875 -0.703125q-0.21875 -0.4375 -0.6875 -0.71875q-0.453125 -0.296875 -1.0625 -0.296875q-1.0 0 -1.59375 0.75q-0.390625 0.515625 -0.390625 0.984375q0 0.53125 0.5625 1.046875q0.578125 0.5 1.421875 0.5q0.84375 0 1.40625 -0.5q0.5625 -0.5 0.5625 -1.0625zm8.529419 -2.875l0 4.578125q0.421875 0 0.625 0.1875q0.203125 0.1875 0.203125 0.484375q0 0.28125 -0.203125 0.46875q-0.203125 0.1875 -0.6875 0.1875l-1.265625 0l0 -0.3125q-0.578125 0.265625 -1.09375 0.390625q-0.515625 0.140625 -0.984375 0.140625q-0.65625 0 -1.140625 -0.28125q-0.484375 -0.28125 -0.765625 -0.765625q-0.203125 -0.34375 -0.203125 -0.875l0 -2.875l-0.21875 0q-0.484375 0 -0.703125 -0.1875q-0.203125 -0.1875 -0.203125 -0.484375q0 -0.28125 0.203125 -0.46875q0.21875 -0.1875 0.703125 -0.1875l1.5625 0l0 3.96875q0 0.421875 0.203125 0.625q0.203125 0.1875 0.625 0.1875q0.40625 0 0.859375 -0.15625q0.46875 -0.15625 1.15625 -0.578125l0 -2.71875l-0.484375 0q-0.484375 0 -0.6875 -0.1875q-0.203125 -0.1875 -0.203125 -0.484375q0 -0.28125 0.203125 -0.46875q0.203125 -0.1875 0.6875 -0.1875l1.8125 0zm4.8419495 1.328125l0 2.671875q0 0.4375 0.171875 0.578125q0.28125 0.203125 0.984375 0.203125q1.015625 0 1.875 -0.4375q0.34375 -0.15625 0.53125 -0.15625q0.25 0 0.4375 0.203125q0.203125 0.1875 0.203125 0.46875q0 0.25 -0.203125 0.4375q-0.328125 0.3125 -1.265625 0.578125q-0.9375 0.25 -1.578125 0.25q-1.25 0 -1.875 -0.53125q-0.609375 -0.546875 -0.609375 -1.328125l0 -2.9375l-0.484375 0q-0.484375 0 -0.6875 -0.1875q-0.203125 -0.1875 -0.203125 -0.484375q0 -0.28125 0.203125 -0.46875q0.203125 -0.1875 0.6875 -0.1875l0.484375 0l0 -1.203125q0 -0.484375 0.171875 -0.6875q0.1875 -0.203125 0.484375 -0.203125q0.296875 0 0.484375 0.203125q0.1875 0.203125 0.1875 0.6875l0 1.203125l2.46875 0q0.484375 0 0.6875 0.1875q0.203125 0.1875 0.203125 0.484375q0 0.28125 -0.203125 0.46875q-0.203125 0.1875 -0.6875 0.1875l-2.46875 0z" fill-rule="nonzero"/><path fill="#ebe3fd" d="m385.42722 38.902885l0 23.653545l21.937012 0l-10.753265 -11.611549l10.753265 -12.041996z" fill-rule="evenodd"/><path stroke="#8b6bda" stroke-width="3.0" stroke-linejoin="round" stroke-linecap="butt" d="m385.42722 38.902885l0 23.653545l21.937012 0l-10.753265 -11.611549l10.753265 -12.041996z" fill-rule="evenodd"/><path fill="#cfe2f3" d="m37.35724 130.46588l0 0c0 -15.664017 12.204647 -28.362206 27.259842 -28.362206l0 0c7.229759 0 14.163406 2.9881516 19.27562 8.307098c5.112213 5.318939 7.9842224 12.532982 7.9842224 20.055107l0 0c0 15.664017 -12.204643 28.362198 -27.259842 28.362198l0 0c-15.055195 0 -27.259842 -12.698181 -27.259842 -28.362198z" fill-rule="evenodd"/><path stroke="#4e8aeb" stroke-width="3.0" stroke-linejoin="round" stroke-linecap="butt" d="m37.35724 130.46588l0 0c0 -15.664017 12.204647 -28.362206 27.259842 -28.362206l0 0c7.229759 0 14.163406 2.9881516 19.27562 8.307098c5.112213 5.318939 7.9842224 12.532982 7.9842224 20.055107l0 0c0 15.664017 -12.204643 28.362198 -27.259842 28.362198l0 0c-15.055195 0 -27.259842 -12.698181 -27.259842 -28.362198z" fill-rule="evenodd"/><path fill="#cfe2f3" d="m81.477684 139.244l0 0c-3.8216858 8.244141 -12.474274 12.675964 -20.972725 10.742157c-8.498451 -1.9338226 -14.653782 -9.735184 -14.919708 -18.90947c-0.26593018 -9.174286 5.4260406 -17.358429 13.796585 -19.837296c8.370544 -2.4788666 17.263618 1.3860474 21.555641 9.368042l-8.601128 5.1553574c-1.9510727 -4.07251 -6.15049 -6.1087646 -10.141628 -4.9175873c-3.991146 1.191185 -6.7253723 5.2968216 -6.603195 9.915184c0.122177124 4.618347 3.068657 8.53598 7.1157837 9.461121c4.0471306 0.9251251 8.13155 -1.3852997 9.863934 -5.579727z" fill-rule="evenodd"/><path stroke="#4e8aeb" stroke-width="3.0" stroke-linejoin="round" stroke-linecap="butt" d="m81.477684 139.244l0 0c-3.8216858 8.244141 -12.474274 12.675964 -20.972725 10.742157c-8.498451 -1.9338226 -14.653782 -9.735184 -14.919708 -18.90947c-0.26593018 -9.174286 5.4260406 -17.358429 13.796585 -19.837296c8.370544 -2.4788666 17.263618 1.3860474 21.555641 9.368042l-8.601128 5.1553574c-1.9510727 -4.07251 -6.15049 -6.1087646 -10.141628 -4.9175873c-3.991146 1.191185 -6.7253723 5.2968216 -6.603195 9.915184c0.122177124 4.618347 3.068657 8.53598 7.1157837 9.461121c4.0471306 0.9251251 8.13155 -1.3852997 9.863934 -5.579727z" fill-rule="evenodd"/><path fill="#000000" fill-opacity="0.0" d="m3.023622 161.80183l128.06299 0l0 25.70079l-128.06299 0z" fill-rule="evenodd"/><path fill="#ffffff" d="m13.162485 176.05496q0.125 -0.171875 0.265625 -0.25q0.15625 -0.09375 0.3125 -0.09375q0.296875 0 0.484375 0.203125q0.1875 0.203125 0.1875 0.6875l0 1.125q0 0.484375 -0.1875 0.6875q-0.1875 0.203125 -0.484375 0.203125q-0.265625 0 -0.421875 -0.140625q-0.171875 -0.15625 -0.25 -0.5625q-0.03125 -0.28125 -0.171875 -0.421875q-0.265625 -0.296875 -0.75 -0.46875q-0.484375 -0.171875 -0.953125 -0.171875q-0.609375 0 -1.109375 0.265625q-0.5 0.25 -0.890625 0.84375q-0.375 0.578125 -0.375 1.390625l0 0.859375q0 0.96875 0.703125 1.609375q0.703125 0.640625 1.9375 0.640625q0.75 0 1.265625 -0.203125q0.296875 -0.109375 0.625 -0.453125q0.21875 -0.21875 0.328125 -0.28125q0.125 -0.0625 0.265625 -0.0625q0.265625 0 0.46875 0.203125q0.203125 0.203125 0.203125 0.484375q0 0.265625 -0.265625 0.578125q-0.40625 0.453125 -1.03125 0.71875q-0.828125 0.34375 -1.84375 0.34375q-1.1875 0 -2.140625 -0.484375q-0.765625 -0.390625 -1.3125 -1.234375q-0.5312505 -0.84375 -0.5312505 -1.828125l0 -0.90625q0 -1.046875 0.484375 -1.9375q0.48437548 -0.90625 1.3437505 -1.390625q0.859375 -0.5 1.8125 -0.5q0.578125 0 1.078125 0.140625q0.515625 0.125 0.953125 0.40625zm5.623184 1.640625l0 0.828125q0.84375 -0.609375 1.328125 -0.796875q0.484375 -0.203125 0.90625 -0.203125q0.65625 0 1.265625 0.46875q0.421875 0.328125 0.421875 0.671875q0 0.28125 -0.203125 0.484375q-0.203125 0.203125 -0.484375 0.203125q-0.25 0 -0.53125 -0.25q-0.265625 -0.25 -0.46875 -0.25q-0.28125 0 -0.84375 0.359375q-0.546875 0.34375 -1.390625 1.046875l0 2.015625l1.90625 0q0.484375 0 0.6875 0.1875q0.203125 0.171875 0.203125 0.484375q0 0.28125 -0.203125 0.46875q-0.203125 0.1875 -0.6875 0.1875l-4.03125 0q-0.484375 0 -0.6875 -0.1875q-0.203125 -0.1875 -0.203125 -0.484375q0 -0.296875 0.203125 -0.46875q0.203125 -0.1875 0.6875 -0.1875l0.796875 0l0 -3.25l-0.484375 0q-0.484375 0 -0.6875 -0.1875q-0.203125 -0.1875 -0.203125 -0.484375q0 -0.28125 0.203125 -0.46875q0.203125 -0.1875 0.6875 -0.1875l1.8125 0zm11.748184 3.0625q0 0.765625 -0.4375 1.484375q-0.421875 0.71875 -1.265625 1.15625q-0.84375 0.421875 -1.75 0.421875q-0.921875 0 -1.75 -0.421875q-0.828125 -0.421875 -1.265625 -1.140625q-0.4375 -0.71875 -0.4375 -1.515625q0 -0.796875 0.4375 -1.5625q0.4375 -0.78125 1.265625 -1.21875q0.84375 -0.4375 1.75 -0.4375q0.90625 0 1.75 0.453125q0.84375 0.4375 1.265625 1.203125q0.4375 0.765625 0.4375 1.578125zm-1.34375 0q0 -0.640625 -0.453125 -1.171875q-0.640625 -0.734375 -1.65625 -0.734375q-0.90625 0 -1.515625 0.578125q-0.609375 0.578125 -0.609375 1.34375q0 0.625 0.609375 1.171875q0.625 0.53125 1.515625 0.53125q0.890625 0 1.5 -0.53125q0.609375 -0.546875 0.609375 -1.1875zm7.3106823 -1.5q-0.328125 -0.203125 -0.6875 -0.296875q-0.34375 -0.109375 -0.734375 -0.109375q-0.78125 0 -1.234375 0.25q-0.203125 0.109375 -0.203125 0.25q0 0.140625 0.265625 0.28125q0.21875 0.109375 0.9375 0.203125q1.328125 0.1875 1.84375 0.375q0.6875 0.234375 1.046875 0.71875q0.375 0.46875 0.375 1.0q0 0.703125 -0.625 1.1875q-0.90625 0.703125 -2.34375 0.703125q-0.578125 0 -1.078125 -0.109375q-0.484375 -0.09375 -0.890625 -0.296875q-0.109375 0.09375 -0.21875 0.140625q-0.109375 0.046875 -0.21875 0.046875q-0.3125 0 -0.5 -0.203125q-0.1875 -0.21875 -0.1875 -0.6875l0 -0.453125q0 -0.484375 0.1875 -0.6875q0.1875 -0.203125 0.484375 -0.203125q0.234375 0 0.390625 0.140625q0.171875 0.125 0.265625 0.453125q0.296875 0.25 0.71875 0.390625q0.4375 0.125 1.0 0.125q0.921875 0 1.421875 -0.28125q0.25 -0.140625 0.25 -0.296875q0 -0.265625 -0.34375 -0.4375q-0.34375 -0.15625 -1.421875 -0.28125q-1.609375 -0.171875 -2.15625 -0.65625q-0.53125 -0.46875 -0.53125 -1.171875q0 -0.703125 0.59375 -1.1875q0.828125 -0.640625 2.15625 -0.640625q0.453125 0 0.875 0.09375q0.4375 0.078125 0.828125 0.25q0.125 -0.078125 0.234375 -0.125q0.109375 -0.046875 0.1875 -0.046875q0.28125 0 0.453125 0.203125q0.1875 0.203125 0.1875 0.6875l0 0.328125q0 0.4375 -0.09375 0.59375q-0.21875 0.296875 -0.578125 0.296875q-0.234375 0 -0.421875 -0.140625q-0.171875 -0.15625 -0.234375 -0.40625zm7.998184 0q-0.328125 -0.203125 -0.6875 -0.296875q-0.34375 -0.109375 -0.734375 -0.109375q-0.78125 0 -1.234375 0.25q-0.203125 0.109375 -0.203125 0.25q0 0.140625 0.265625 0.28125q0.21875 0.109375 0.9375 0.203125q1.328125 0.1875 1.84375 0.375q0.6875 0.234375 1.046875 0.71875q0.375 0.46875 0.375 1.0q0 0.703125 -0.625 1.1875q-0.90625 0.703125 -2.34375 0.703125q-0.578125 0 -1.078125 -0.109375q-0.484375 -0.09375 -0.890625 -0.296875q-0.109375 0.09375 -0.21875 0.140625q-0.109375 0.046875 -0.21875 0.046875q-0.3125 0 -0.5 -0.203125q-0.1875 -0.21875 -0.1875 -0.6875l0 -0.453125q0 -0.484375 0.1875 -0.6875q0.1875 -0.203125 0.484375 -0.203125q0.234375 0 0.390625 0.140625q0.171875 0.125 0.265625 0.453125q0.296875 0.25 0.71875 0.390625q0.4375 0.125 1.0 0.125q0.921875 0 1.421875 -0.28125q0.25 -0.140625 0.25 -0.296875q0 -0.265625 -0.34375 -0.4375q-0.34375 -0.15625 -1.421875 -0.28125q-1.609375 -0.171875 -2.15625 -0.65625q-0.53125 -0.46875 -0.53125 -1.171875q0 -0.703125 0.59375 -1.1875q0.828125 -0.640625 2.15625 -0.640625q0.453125 0 0.875 0.09375q0.4375 0.078125 0.828125 0.25q0.125 -0.078125 0.234375 -0.125q0.109375 -0.046875 0.1875 -0.046875q0.28125 0 0.453125 0.203125q0.1875 0.203125 0.1875 0.6875l0 0.328125q0 0.4375 -0.09375 0.59375q-0.21875 0.296875 -0.578125 0.296875q-0.234375 0 -0.421875 -0.140625q-0.171875 -0.15625 -0.234375 -0.40625zm4.466934 -0.96875l0 3.984375l0.484375 0q0.484375 0 0.6875 0.1875q0.203125 0.171875 0.203125 0.484375q0 0.28125 -0.203125 0.46875q-0.203125 0.1875 -0.6875 0.1875l-1.75 0q-0.484375 0 -0.6875 -0.1875q-0.203125 -0.1875 -0.203125 -0.484375q0 -0.296875 0.203125 -0.46875q0.203125 -0.1875 0.625 -0.1875l0 -5.21875q-0.34375 -0.046875 -0.53125 -0.21875q-0.171875 -0.1875 -0.171875 -0.453125q0 -0.296875 0.203125 -0.484375q0.203125 -0.1875 0.6875 -0.1875l1.453125 0l1.828125 4.015625l1.78125 -4.015625l1.46875 0q0.484375 0 0.6875 0.1875q0.203125 0.1875 0.203125 0.484375q0 0.265625 -0.1875 0.453125q-0.171875 0.171875 -0.515625 0.21875l0 5.21875q0.421875 0 0.625 0.1875q0.203125 0.1875 0.203125 0.484375q0 0.28125 -0.203125 0.46875q-0.203125 0.1875 -0.6875 0.1875l-1.765625 0q-0.46875 0 -0.671875 -0.1875q-0.203125 -0.1875 -0.203125 -0.484375q0 -0.296875 0.203125 -0.46875q0.203125 -0.1875 0.671875 -0.1875l0.5 0l0 -3.984375l-1.53125 3.4375l-1.15625 0l-1.5625 -3.4375zm12.920059 -0.59375l0 4.578125q0.421875 0 0.625 0.1875q0.203125 0.1875 0.203125 0.484375q0 0.28125 -0.203125 0.46875q-0.203125 0.1875 -0.6875 0.1875l-1.265625 0l0 -0.3125q-0.578125 0.265625 -1.09375 0.390625q-0.515625 0.140625 -0.984375 0.140625q-0.65625 0 -1.140625 -0.28125q-0.484375 -0.28125 -0.765625 -0.765625q-0.203125 -0.34375 -0.203125 -0.875l0 -2.875l-0.21875 0q-0.484375 0 -0.703125 -0.1875q-0.203125 -0.1875 -0.203125 -0.484375q0 -0.28125 0.203125 -0.46875q0.21875 -0.1875 0.703125 -0.1875l1.5625 0l0 3.96875q0 0.421875 0.203125 0.625q0.203125 0.1875 0.625 0.1875q0.40625 0 0.859375 -0.15625q0.46875 -0.15625 1.15625 -0.578125l0 -2.71875l-0.484375 0q-0.484375 0 -0.6875 -0.1875q-0.203125 -0.1875 -0.203125 -0.484375q0 -0.28125 0.203125 -0.46875q0.203125 -0.1875 0.6875 -0.1875l1.8125 0zm5.841934 -2.53125l0 7.109375l1.59375 0q0.484375 0 0.6875 0.1875q0.203125 0.171875 0.203125 0.484375q0 0.28125 -0.203125 0.46875q-0.203125 0.1875 -0.6875 0.1875l-4.53125 0q-0.484375 0 -0.6875 -0.1875q-0.203125 -0.1875 -0.203125 -0.484375q0 -0.296875 0.203125 -0.46875q0.203125 -0.1875 0.6875 -0.1875l1.59375 0l0 -5.78125l-1.0625 0q-0.484375 0 -0.703125 -0.1875q-0.203125 -0.1875 -0.203125 -0.484375q0 -0.28125 0.203125 -0.46875q0.21875 -0.1875 0.703125 -0.1875l2.40625 0zm6.998184 3.859375l0 2.671875q0 0.4375 0.171875 0.578125q0.28125 0.203125 0.984375 0.203125q1.015625 0 1.875 -0.4375q0.34375 -0.15625 0.53125 -0.15625q0.25 0 0.4375 0.203125q0.203125 0.1875 0.203125 0.46875q0 0.25 -0.203125 0.4375q-0.328125 0.3125 -1.265625 0.578125q-0.9375 0.25 -1.578125 0.25q-1.25 0 -1.875 -0.53125q-0.609375 -0.546875 -0.609375 -1.328125l0 -2.9375l-0.484375 0q-0.484375 0 -0.6875 -0.1875q-0.203125 -0.1875 -0.203125 -0.484375q0 -0.28125 0.203125 -0.46875q0.203125 -0.1875 0.6875 -0.1875l0.484375 0l0 -1.203125q0 -0.484375 0.171875 -0.6875q0.1875 -0.203125 0.484375 -0.203125q0.296875 0 0.484375 0.203125q0.1875 0.203125 0.1875 0.6875l0 1.203125l2.46875 0q0.484375 0 0.6875 0.1875q0.203125 0.1875 0.203125 0.484375q0 0.28125 -0.203125 0.46875q-0.203125 0.1875 -0.6875 0.1875l-2.46875 0zm8.810684 -3.859375l0 1.40625l-1.59375 0l0 -1.40625l1.59375 0zm0.171875 2.53125l0 4.578125l1.609375 0q0.46875 0 0.671875 0.1875q0.21875 0.171875 0.21875 0.484375q0 0.28125 -0.21875 0.46875q-0.203125 0.1875 -0.671875 0.1875l-4.546875 0q-0.46875 0 -0.6875 -0.1875q-0.203125 -0.1875 -0.203125 -0.484375q0 -0.296875 0.203125 -0.46875q0.21875 -0.1875 0.6875 -0.1875l1.609375 0l0 -3.25l-1.078125 0q-0.46875 0 -0.6875 -0.1875q-0.203125 -0.1875 -0.203125 -0.484375q0 -0.28125 0.203125 -0.46875q0.203125 -0.1875 0.6875 -0.1875l2.40625 0zm5.685684 5.171875l0 2.1875l0.796875 0q0.484375 0 0.6875 0.1875q0.203125 0.1875 0.203125 0.484375q0 0.296875 -0.203125 0.46875q-0.203125 0.1875 -0.6875 0.1875l-2.359375 0q-0.484375 0 -0.6875 -0.1875q-0.203125 -0.171875 -0.203125 -0.46875q0 -0.296875 0.203125 -0.484375q0.21875 -0.1875 0.6875 -0.1875l0.234375 0l0 -6.03125l-0.234375 0q-0.484375 0 -0.6875 -0.1875q-0.203125 -0.1875 -0.203125 -0.484375q0 -0.28125 0.203125 -0.46875q0.203125 -0.1875 0.6875 -0.1875l1.5625 0l0 0.453125q0.46875 -0.3125 0.96875 -0.46875q0.5 -0.15625 1.03125 -0.15625q1.359375 0 2.328125 0.921875q0.96875 0.921875 0.96875 2.125q0 1.3125 -1.140625 2.171875q-0.953125 0.71875 -2.140625 0.71875q-0.515625 0 -1.015625 -0.140625q-0.5 -0.15625 -1.0 -0.453125zm3.953125 -2.296875q0 -0.28125 -0.21875 -0.703125q-0.21875 -0.4375 -0.6875 -0.71875q-0.453125 -0.296875 -1.0625 -0.296875q-1.0 0 -1.59375 0.75q-0.390625 0.515625 -0.390625 0.984375q0 0.53125 0.5625 1.046875q0.578125 0.5 1.421875 0.5q0.84375 0 1.40625 -0.5q0.5625 -0.5 0.5625 -1.0625zm6.373184 -5.40625l0 7.109375l1.59375 0q0.484375 0 0.6875 0.1875q0.203125 0.171875 0.203125 0.484375q0 0.28125 -0.203125 0.46875q-0.203125 0.1875 -0.6875 0.1875l-4.53125 0q-0.484375 0 -0.6875 -0.1875q-0.203125 -0.1875 -0.203125 -0.484375q0 -0.296875 0.203125 -0.46875q0.203125 -0.1875 0.6875 -0.1875l1.59375 0l0 -5.78125l-1.0625 0q-0.484375 0 -0.703125 -0.1875q-0.203125 -0.1875 -0.203125 -0.484375q0 -0.28125 0.203125 -0.46875q0.21875 -0.1875 0.703125 -0.1875l2.40625 0zm7.810684 0l0 1.40625l-1.59375 0l0 -1.40625l1.59375 0zm0.171875 2.53125l0 4.578125l1.609375 0q0.46875 0 0.671875 0.1875q0.21875 0.171875 0.21875 0.484375q0 0.28125 -0.21875 0.46875q-0.203125 0.1875 -0.671875 0.1875l-4.546875 0q-0.46875 0 -0.6875 -0.1875q-0.203125 -0.1875 -0.203125 -0.484375q0 -0.296875 0.203125 -0.46875q0.21875 -0.1875 0.6875 -0.1875l1.609375 0l0 -3.25l-1.078125 0q-0.46875 0 -0.6875 -0.1875q-0.203125 -0.1875 -0.203125 -0.484375q0 -0.28125 0.203125 -0.46875q0.203125 -0.1875 0.6875 -0.1875l2.40625 0zm10.685684 3.625l-5.46875 0q0.203125 0.53125 0.734375 0.84375q0.53125 0.3125 1.4375 0.3125q0.75 0 1.96875 -0.3125q0.515625 -0.125 0.703125 -0.125q0.265625 0 0.453125 0.1875q0.1875 0.1875 0.1875 0.46875q0 0.265625 -0.203125 0.4375q-0.265625 0.25 -1.28125 0.46875q-1.0 0.21875 -1.921875 0.21875q-1.609375 0 -2.578125 -0.90625q-0.953125 -0.90625 -0.953125 -2.234375q0 -1.40625 1.03125 -2.28125q1.046875 -0.875 2.40625 -0.875q0.8125 0 1.484375 0.28125q0.6875 0.28125 1.015625 0.609375q0.46875 0.484375 0.78125 1.203125q0.203125 0.484375 0.203125 1.140625l0 0.5625zm-1.46875 -1.328125q-0.3125 -0.578125 -0.8125 -0.859375q-0.484375 -0.28125 -1.171875 -0.28125q-0.671875 0 -1.171875 0.28125q-0.5 0.28125 -0.8125 0.859375l3.96875 0zm5.841934 -2.296875l0 0.828125q0.84375 -0.609375 1.328125 -0.796875q0.484375 -0.203125 0.90625 -0.203125q0.65625 0 1.265625 0.46875q0.421875 0.328125 0.421875 0.671875q0 0.28125 -0.203125 0.484375q-0.203125 0.203125 -0.484375 0.203125q-0.25 0 -0.53125 -0.25q-0.265625 -0.25 -0.46875 -0.25q-0.28125 0 -0.84375 0.359375q-0.546875 0.34375 -1.390625 1.046875l0 2.015625l1.90625 0q0.484375 0 0.6875 0.1875q0.203125 0.171875 0.203125 0.484375q0 0.28125 -0.203125 0.46875q-0.203125 0.1875 -0.6875 0.1875l-4.03125 0q-0.484375 0 -0.6875 -0.1875q-0.203125 -0.1875 -0.203125 -0.484375q0 -0.296875 0.203125 -0.46875q0.203125 -0.1875 0.6875 -0.1875l0.796875 0l0 -3.25l-0.484375 0q-0.484375 0 -0.6875 -0.1875q-0.203125 -0.1875 -0.203125 -0.484375q0 -0.28125 0.203125 -0.46875q0.203125 -0.1875 0.6875 -0.1875l1.8125 0z" fill-rule="nonzero"/><path fill="#ebe3fd" d="m74.81525 137.98294l0 23.65355l21.937004 0l-10.753281 -11.611557l10.753281 -12.041992z" fill-rule="evenodd"/><path stroke="#8b6bda" stroke-width="3.0" stroke-linejoin="round" stroke-linecap="butt" d="m74.81525 137.98294l0 23.65355l21.937004 0l-10.753281 -11.611557l10.753281 -12.041992z" fill-rule="evenodd"/></g></svg>